<svg xmlns="http://www.w3.org/2000/svg" xmlns:xlink="http://www.w3.org/1999/xlink" version="1.1" data-diagram-type="SEQUENCE" style="width:2685px;height:3077px;background:#FFFFFF;" width="2685.938px" height="3077.344px" viewBox="0 0 2685 3077" zoomAndPan="magnify" preserveAspectRatio="none" contentStyleType="text/css"><?plantuml 1.2026.8?><defs/><g font-family="sans-serif" lengthAdjust="spacing"><g class="title" data-source-line="1"><text x="843.066" y="65.934" fill="#000" font-size="32.813" textLength="996.552" font-weight="700" font-family="Arial">UC005 — TUẦN TỰ QUẢN LÝ HỒ SƠ VÀ VÒNG ĐỜI TÀI KHOẢN</text></g><rect x="83.416" y="403.583" width="2485.468" height="2268.747" fill="none" style="stroke:#000;stroke-width:3.516;"/><rect x="127.947" y="1868.349" width="2382.343" height="771.168" fill="none" style="stroke:#000;stroke-width:3.516;"/><g><title>Ng..i s. d.ng</title><rect x="157.244" y="296.829" width="18.75" height="2570.258" fill="#000" fill-opacity="0"/><line x1="165.447" y1="296.829" x2="165.447" y2="2867.087" style="stroke:#299D78;stroke-width:1.172;stroke-dasharray:11.719,11.719;"/></g><g><title>ProfilePanel</title><rect x="780.139" y="296.829" width="18.75" height="2570.258" fill="#000" fill-opacity="0"/><line x1="788.342" y1="296.829" x2="788.342" y2="2867.087" style="stroke:#299D78;stroke-width:1.172;stroke-dasharray:11.719,11.719;"/></g><g><title>Auth . Account Backend</title><rect x="1587.078" y="296.829" width="18.75" height="2570.258" fill="#000" fill-opacity="0"/><line x1="1595.281" y1="296.829" x2="1595.281" y2="2867.087" style="stroke:#299D78;stroke-width:1.172;stroke-dasharray:11.719,11.719;"/></g><g><title>CSDL</title><rect x="2226.996" y="296.829" width="18.75" height="2570.258" fill="#000" fill-opacity="0"/><line x1="2235.199" y1="296.829" x2="2235.199" y2="2867.087" style="stroke:#299D78;stroke-width:1.172;stroke-dasharray:11.719,11.719;"/></g><g><title>Avatar Storage</title><rect x="2464.587" y="296.829" width="18.75" height="2570.258" fill="#000" fill-opacity="0"/><line x1="2472.79" y1="296.829" x2="2472.79" y2="2867.087" style="stroke:#299D78;stroke-width:1.172;stroke-dasharray:11.719,11.719;"/></g><text x="23.438" y="288.385" fill="#000" font-size="39.844" textLength="269.957" font-family="Arial">Người sử dụng</text><ellipse cx="165.447" cy="130.309" rx="18.75" ry="18.75" fill="#E2E2F0" style="stroke:#181818;stroke-width:1.172;"/><path d="M165.447,149.059 L165.447,212.341 M134.978,167.809 L195.916,167.809 M165.447,212.341 L134.978,247.497 M165.447,212.341 L195.916,247.497" style="stroke:#181818;stroke-width:1.172;" fill="none"/><text x="673.89" y="288.385" fill="#000" font-size="39.844" textLength="214.841" font-family="Arial">ProfilePanel</text><path d="M740.295,185.387 L740.295,241.637 M740.295,213.512 L780.139,213.512" style="stroke:#181818;stroke-width:1.172;" fill="none"/><ellipse cx="808.264" cy="213.512" rx="28.125" ry="28.125" fill="#E2E2F0" style="stroke:#181818;stroke-width:1.172;"/><text x="1375.617" y="288.385" fill="#000" font-size="39.844" textLength="425.266" font-family="Arial">Auth / Account Backend</text><ellipse cx="1595.281" cy="213.512" rx="28.125" ry="28.125" fill="#E2E2F0" style="stroke:#181818;stroke-width:1.172;"/><polygon points="1585.906,185.387,1599.969,173.669,1595.281,185.387,1599.969,197.106,1585.906,185.387" fill="#181818" style="stroke:#181818;stroke-width:2.344;stroke-linejoin:miter;stroke-miterlimit:10;"/><text x="2175.027" y="288.385" fill="#000" font-size="39.844" textLength="106.282" font-family="Arial">CSDL</text><path d="M2193.012,166.637 C2193.012,143.2 2235.199,143.2 2235.199,143.2 C2235.199,143.2 2277.387,143.2 2277.387,166.637 L2277.387,227.575 C2277.387,251.012 2235.199,251.012 2235.199,251.012 C2235.199,251.012 2193.012,251.012 2193.012,227.575 L2193.012,166.637" style="stroke:#181818;stroke-width:1.172;" fill="#E2E2F0"/><path d="M2193.012,166.637 C2193.012,190.075 2235.199,190.075 2235.199,190.075 C2235.199,190.075 2277.387,190.075 2277.387,166.637" style="stroke:#181818;stroke-width:1.172;" fill="none"/><rect x="2328.184" y="206.481" width="298.587" height="78.629" fill="#E2E2F0" style="stroke:#181818;stroke-width:1.172;"/><rect x="2318.809" y="215.856" width="298.587" height="78.629" fill="#E2E2F0" style="stroke:#181818;stroke-width:1.172;"/><text x="2335.216" y="269.635" fill="#000" font-size="39.844" textLength="265.774" font-family="Arial">Avatar Storage</text><text x="23.438" y="2904.46" fill="#000" font-size="39.844" textLength="269.957" font-family="Arial">Người sử dụng</text><ellipse cx="165.447" cy="2932.825" rx="18.75" ry="18.75" fill="#E2E2F0" style="stroke:#181818;stroke-width:1.172;"/><path d="M165.447,2951.575 L165.447,3014.857 M134.978,2970.325 L195.916,2970.325 M165.447,3014.857 L134.978,3050.013 M165.447,3014.857 L195.916,3050.013" style="stroke:#181818;stroke-width:1.172;" fill="none"/><text x="673.89" y="2904.46" fill="#000" font-size="39.844" textLength="214.841" font-family="Arial">ProfilePanel</text><path d="M740.295,2922.279 L740.295,2978.529 M740.295,2950.404 L780.139,2950.404" style="stroke:#181818;stroke-width:1.172;" fill="none"/><ellipse cx="808.264" cy="2950.404" rx="28.125" ry="28.125" fill="#E2E2F0" style="stroke:#181818;stroke-width:1.172;"/><text x="1375.617" y="2904.46" fill="#000" font-size="39.844" textLength="425.266" font-family="Arial">Auth / Account Backend</text><ellipse cx="1595.281" cy="2950.404" rx="28.125" ry="28.125" fill="#E2E2F0" style="stroke:#181818;stroke-width:1.172;"/><polygon points="1585.906,2922.279,1599.969,2910.56,1595.281,2922.279,1599.969,2933.997,1585.906,2922.279" fill="#181818" style="stroke:#181818;stroke-width:2.344;stroke-linejoin:miter;stroke-miterlimit:10;"/><text x="2175.027" y="2904.46" fill="#000" font-size="39.844" textLength="106.282" font-family="Arial">CSDL</text><path d="M2193.012,2936.341 C2193.012,2912.904 2235.199,2912.904 2235.199,2912.904 C2235.199,2912.904 2277.387,2912.904 2277.387,2936.341 L2277.387,2997.279 C2277.387,3020.716 2235.199,3020.716 2235.199,3020.716 C2235.199,3020.716 2193.012,3020.716 2193.012,2997.279 L2193.012,2936.341" style="stroke:#181818;stroke-width:1.172;" fill="#E2E2F0"/><path d="M2193.012,2936.341 C2193.012,2959.779 2235.199,2959.779 2235.199,2959.779 C2235.199,2959.779 2277.387,2959.779 2277.387,2936.341" style="stroke:#181818;stroke-width:1.172;" fill="none"/><rect x="2328.184" y="2867.087" width="298.587" height="78.629" fill="#E2E2F0" style="stroke:#181818;stroke-width:1.172;"/><rect x="2318.809" y="2876.462" width="298.587" height="78.629" fill="#E2E2F0" style="stroke:#181818;stroke-width:1.172;"/><text x="2335.216" y="2930.241" fill="#000" font-size="39.844" textLength="265.774" font-family="Arial">Avatar Storage</text><polygon points="760.217,366.083,783.655,375.458,760.217,384.833,769.592,375.458" fill="#345B52" style="stroke:#345B52;stroke-width:2.344;stroke-linejoin:miter;stroke-miterlimit:10;"/><line x1="165.447" y1="375.458" x2="774.28" y2="375.458" style="stroke:#345B52;stroke-width:2.344;"/><text x="181.853" y="362.327" fill="#000" font-size="39.844" textLength="383.185" font-family="Arial">Chọn thao tác UC005</text><path d="M83.416,403.583 L235.382,403.583 L235.382,430.649 L211.945,454.087 L83.416,454.087 L83.416,403.583" style="stroke:#000;stroke-width:3.516;" fill="#EEE"/><rect x="83.416" y="403.583" width="2485.468" height="2268.747" fill="none" style="stroke:#000;stroke-width:3.516;"/><text x="118.572" y="443.299" fill="#000" font-size="39.844" textLength="46.497" font-weight="700" font-family="Arial">alt</text><text x="270.538" y="445.643" fill="#000" font-size="39.844" textLength="446.764" font-weight="700" font-family="Arial">[Cập nhật hồ sơ/avatar]</text><polygon points="1567.156,538.688,1590.594,548.063,1567.156,557.438,1576.531,548.063" fill="#345B52" style="stroke:#345B52;stroke-width:2.344;stroke-linejoin:miter;stroke-miterlimit:10;"/><line x1="788.342" y1="548.063" x2="1581.219" y2="548.063" style="stroke:#345B52;stroke-width:2.344;"/><text x="804.749" y="534.932" fill="#000" font-size="39.844" textLength="750.689" font-family="Arial">PUT /auth/me hoặc POST/DELETE avatar</text><line x1="1595.281" y1="626.692" x2="1693.719" y2="626.692" style="stroke:#345B52;stroke-width:2.344;"/><line x1="1693.719" y1="626.692" x2="1693.719" y2="657.161" style="stroke:#345B52;stroke-width:2.344;"/><line x1="1597.625" y1="657.161" x2="1693.719" y2="657.161" style="stroke:#345B52;stroke-width:2.344;"/><polygon points="1621.062,647.786,1597.625,657.161,1621.062,666.536,1611.687,657.161" fill="#345B52" style="stroke:#345B52;stroke-width:2.344;stroke-linejoin:miter;stroke-miterlimit:10;"/><text x="1611.687" y="613.561" fill="#000" font-size="39.844" textLength="593.298" font-family="Arial">Kiểm tra dữ liệu và quyền sở hữu</text><polygon points="2207.074,726.415,2230.512,735.79,2207.074,745.165,2216.449,735.79" fill="#345B52" style="stroke:#345B52;stroke-width:2.344;stroke-linejoin:miter;stroke-miterlimit:10;"/><line x1="1595.281" y1="735.79" x2="2221.137" y2="735.79" style="stroke:#345B52;stroke-width:2.344;"/><text x="1611.687" y="722.659" fill="#000" font-size="39.844" textLength="462.464" font-family="Arial">Cập nhật hồ sơ/avatar_url</text><polygon points="1621.062,805.044,1597.625,814.419,1621.062,823.794,1611.687,814.419" fill="#345B52" style="stroke:#345B52;stroke-width:2.344;stroke-linejoin:miter;stroke-miterlimit:10;"/><line x1="1607" y1="814.419" x2="2232.856" y2="814.419" style="stroke:#345B52;stroke-width:2.344;stroke-dasharray:4.688,4.688;"/><text x="1635.125" y="801.288" fill="#000" font-size="39.844" textLength="137.235" font-family="Arial">Commit</text><polygon points="2444.665,883.673,2468.103,893.048,2444.665,902.423,2454.04,893.048" fill="#345B52" style="stroke:#345B52;stroke-width:2.344;stroke-linejoin:miter;stroke-miterlimit:10;"/><line x1="1595.281" y1="893.048" x2="2458.728" y2="893.048" style="stroke:#345B52;stroke-width:2.344;"/><text x="1611.687" y="879.917" fill="#000" font-size="39.844" textLength="345.695" font-family="Arial">Lưu/dọn tệp nếu có</text><polygon points="814.124,962.302,790.686,971.677,814.124,981.052,804.749,971.677" fill="#345B52" style="stroke:#345B52;stroke-width:2.344;stroke-linejoin:miter;stroke-miterlimit:10;"/><line x1="800.061" y1="971.677" x2="1592.937" y2="971.677" style="stroke:#345B52;stroke-width:2.344;stroke-dasharray:4.688,4.688;"/><text x="828.186" y="958.546" fill="#000" font-size="39.844" textLength="368.924" font-family="Arial">Hồ sơ công khai mới</text><line x1="83.416" y1="992.77" x2="2568.884" y2="992.77" style="stroke:#000;stroke-width:2.344;stroke-dasharray:4.688,4.688;"/><text x="95.135" y="1034.831" fill="#000" font-size="39.844" textLength="276.708" font-weight="700" font-family="Arial">[Đổi mật khẩu]</text><polygon points="1567.156,1100.809,1590.594,1110.184,1567.156,1119.559,1576.531,1110.184" fill="#345B52" style="stroke:#345B52;stroke-width:2.344;stroke-linejoin:miter;stroke-miterlimit:10;"/><line x1="788.342" y1="1110.184" x2="1581.219" y2="1110.184" style="stroke:#345B52;stroke-width:2.344;"/><text x="804.749" y="1097.054" fill="#000" font-size="39.844" textLength="427.386" font-family="Arial">PUT /auth/me/password</text><line x1="1595.281" y1="1234.63" x2="1693.719" y2="1234.63" style="stroke:#345B52;stroke-width:2.344;"/><line x1="1693.719" y1="1234.63" x2="1693.719" y2="1265.099" style="stroke:#345B52;stroke-width:2.344;"/><line x1="1597.625" y1="1265.099" x2="1693.719" y2="1265.099" style="stroke:#345B52;stroke-width:2.344;"/><polygon points="1621.062,1255.724,1597.625,1265.099,1621.062,1274.474,1611.687,1265.099" fill="#345B52" style="stroke:#345B52;stroke-width:2.344;stroke-linejoin:miter;stroke-miterlimit:10;"/><text x="1611.687" y="1175.682" fill="#000" font-size="39.844" textLength="480.596" font-family="Arial">Xác minh mật khẩu hiện tại</text><text x="1611.687" y="1221.499" fill="#000" font-size="39.844" textLength="500.051" font-family="Arial">và chính sách mật khẩu mới</text><polygon points="2207.074,1334.352,2230.512,1343.727,2207.074,1353.102,2216.449,1343.727" fill="#345B52" style="stroke:#345B52;stroke-width:2.344;stroke-linejoin:miter;stroke-miterlimit:10;"/><line x1="1595.281" y1="1343.727" x2="2221.137" y2="1343.727" style="stroke:#345B52;stroke-width:2.344;"/><text x="1611.687" y="1330.597" fill="#000" font-size="39.844" textLength="440.382" font-family="Arial">Lưu password_hash mới</text><polygon points="1621.062,1412.981,1597.625,1422.356,1621.062,1431.731,1611.687,1422.356" fill="#345B52" style="stroke:#345B52;stroke-width:2.344;stroke-linejoin:miter;stroke-miterlimit:10;"/><line x1="1607" y1="1422.356" x2="2232.856" y2="1422.356" style="stroke:#345B52;stroke-width:2.344;stroke-dasharray:4.688,4.688;"/><text x="1635.125" y="1409.225" fill="#000" font-size="39.844" textLength="137.235" font-family="Arial">Commit</text><polygon points="814.124,1491.61,790.686,1500.985,814.124,1510.36,804.749,1500.985" fill="#345B52" style="stroke:#345B52;stroke-width:2.344;stroke-linejoin:miter;stroke-miterlimit:10;"/><line x1="800.061" y1="1500.985" x2="1592.937" y2="1500.985" style="stroke:#345B52;stroke-width:2.344;stroke-dasharray:4.688,4.688;"/><text x="828.186" y="1487.854" fill="#000" font-size="39.844" textLength="398.768" font-family="Arial">Thông báo thành công</text><line x1="83.416" y1="1522.079" x2="2568.884" y2="1522.079" style="stroke:#000;stroke-width:2.344;stroke-dasharray:4.688,4.688;"/><text x="95.135" y="1564.14" fill="#000" font-size="39.844" textLength="493.747" font-weight="700" font-family="Arial">[UC005e — Xóa tài khoản]</text><polygon points="1567.156,1675.935,1590.594,1685.31,1567.156,1694.685,1576.531,1685.31" fill="#345B52" style="stroke:#345B52;stroke-width:2.344;stroke-linejoin:miter;stroke-miterlimit:10;"/><line x1="788.342" y1="1685.31" x2="1581.219" y2="1685.31" style="stroke:#345B52;stroke-width:2.344;"/><text x="804.749" y="1626.362" fill="#000" font-size="39.844" textLength="321.104" font-family="Arial">DELETE /auth/me</text><text x="804.749" y="1672.179" fill="#000" font-size="39.844" textLength="513.825" font-family="Arial">(mật khẩu hiện tại, xác nhận)</text><line x1="1595.281" y1="1809.755" x2="1693.719" y2="1809.755" style="stroke:#345B52;stroke-width:2.344;"/><line x1="1693.719" y1="1809.755" x2="1693.719" y2="1840.224" style="stroke:#345B52;stroke-width:2.344;"/><line x1="1597.625" y1="1840.224" x2="1693.719" y2="1840.224" style="stroke:#345B52;stroke-width:2.344;"/><polygon points="1621.062,1830.849,1597.625,1840.224,1621.062,1849.599,1611.687,1840.224" fill="#345B52" style="stroke:#345B52;stroke-width:2.344;stroke-linejoin:miter;stroke-miterlimit:10;"/><text x="1611.687" y="1750.808" fill="#000" font-size="39.844" textLength="454.137" font-family="Arial">Xác thực phiên, mật khẩu</text><text x="1611.687" y="1796.624" fill="#000" font-size="39.844" textLength="391.395" font-family="Arial">và "XÓA TÀI KHOẢN"</text><path d="M127.947,1868.349 L279.913,1868.349 L279.913,1895.415 L256.476,1918.853 L127.947,1918.853 L127.947,1868.349" style="stroke:#000;stroke-width:3.516;" fill="#EEE"/><rect x="127.947" y="1868.349" width="2382.343" height="771.168" fill="none" style="stroke:#000;stroke-width:3.516;"/><text x="163.103" y="1908.065" fill="#000" font-size="39.844" textLength="46.497" font-weight="700" font-family="Arial">alt</text><text x="315.07" y="1910.409" fill="#000" font-size="39.844" textLength="285.035" font-weight="700" font-family="Arial">[Không hợp lệ]</text><polygon points="814.124,2003.454,790.686,2012.829,814.124,2022.204,804.749,2012.829" fill="#345B52" style="stroke:#345B52;stroke-width:2.344;stroke-linejoin:miter;stroke-miterlimit:10;"/><line x1="800.061" y1="2012.829" x2="1592.937" y2="2012.829" style="stroke:#345B52;stroke-width:2.344;stroke-dasharray:4.688,4.688;"/><text x="828.186" y="1999.698" fill="#000" font-size="39.844" textLength="558.338" font-family="Arial">400/401; không thay đổi dữ liệu</text><line x1="127.947" y1="2033.923" x2="2510.29" y2="2033.923" style="stroke:#000;stroke-width:2.344;stroke-dasharray:4.688,4.688;"/><text x="139.666" y="2075.983" fill="#000" font-size="39.844" textLength="152.274" font-weight="700" font-family="Arial">[Hợp lệ]</text><polygon points="2207.074,2187.778,2230.512,2197.153,2207.074,2206.528,2216.449,2197.153" fill="#345B52" style="stroke:#345B52;stroke-width:2.344;stroke-linejoin:miter;stroke-miterlimit:10;"/><line x1="1595.281" y1="2197.153" x2="2221.137" y2="2197.153" style="stroke:#345B52;stroke-width:2.344;"/><text x="1611.687" y="2138.206" fill="#000" font-size="39.844" textLength="583.668" font-family="Arial">Hard delete dữ liệu active + User</text><text x="1611.687" y="2184.023" fill="#000" font-size="39.844" textLength="374.274" font-family="Arial">trong một transaction</text><polygon points="1621.062,2266.407,1597.625,2275.782,1621.062,2285.157,1611.687,2275.782" fill="#345B52" style="stroke:#345B52;stroke-width:2.344;stroke-linejoin:miter;stroke-miterlimit:10;"/><line x1="1607" y1="2275.782" x2="2232.856" y2="2275.782" style="stroke:#345B52;stroke-width:2.344;stroke-dasharray:4.688,4.688;"/><text x="1635.125" y="2262.651" fill="#000" font-size="39.844" textLength="137.235" font-family="Arial">Commit</text><polygon points="2444.665,2345.036,2468.103,2354.411,2444.665,2363.786,2454.04,2354.411" fill="#345B52" style="stroke:#345B52;stroke-width:2.344;stroke-linejoin:miter;stroke-miterlimit:10;"/><line x1="1595.281" y1="2354.411" x2="2458.728" y2="2354.411" style="stroke:#345B52;stroke-width:2.344;"/><text x="1611.687" y="2341.28" fill="#000" font-size="39.844" textLength="403.107" font-family="Arial">Dọn avatar idempotent</text><polygon points="814.124,2423.665,790.686,2433.04,814.124,2442.415,804.749,2433.04" fill="#345B52" style="stroke:#345B52;stroke-width:2.344;stroke-linejoin:miter;stroke-miterlimit:10;"/><line x1="800.061" y1="2433.04" x2="1592.937" y2="2433.04" style="stroke:#345B52;stroke-width:2.344;stroke-dasharray:4.688,4.688;"/><text x="828.186" y="2419.909" fill="#000" font-size="39.844" textLength="279.101" font-family="Arial">204 No Content</text><line x1="788.342" y1="2511.669" x2="886.78" y2="2511.669" style="stroke:#345B52;stroke-width:2.344;"/><line x1="886.78" y1="2511.669" x2="886.78" y2="2542.138" style="stroke:#345B52;stroke-width:2.344;"/><line x1="790.686" y1="2542.138" x2="886.78" y2="2542.138" style="stroke:#345B52;stroke-width:2.344;"/><polygon points="814.124,2532.763,790.686,2542.138,814.124,2551.513,804.749,2542.138" fill="#345B52" style="stroke:#345B52;stroke-width:2.344;stroke-linejoin:miter;stroke-miterlimit:10;"/><text x="804.749" y="2498.538" fill="#000" font-size="39.844" textLength="496.218" font-family="Arial">Xóa token, cache, bản nháp</text><polygon points="191.228,2611.392,167.791,2620.767,191.228,2630.142,181.853,2620.767" fill="#345B52" style="stroke:#345B52;stroke-width:2.344;stroke-linejoin:miter;stroke-miterlimit:10;"/><line x1="177.166" y1="2620.767" x2="785.999" y2="2620.767" style="stroke:#345B52;stroke-width:2.344;stroke-dasharray:4.688,4.688;"/><text x="205.291" y="2607.636" fill="#000" font-size="39.844" textLength="566.645" font-family="Arial">Chuyển tới xác nhận/đăng nhập</text><path d="M1418.2,2716.861 L1418.2,2831.704 L2648.669,2831.704 L2648.669,2740.298 L2625.231,2716.861 L1418.2,2716.861" style="stroke:#181818;stroke-width:1.172;" fill="#FEFFDD"/><path d="M2625.231,2716.861 L2625.231,2740.298 L2648.669,2740.298 L2625.231,2716.861" style="stroke:#181818;stroke-width:1.172;" fill="#FEFFDD"/><text x="1432.262" y="2765.952" fill="#000" font-size="39.844" textLength="1182.453" font-family="Arial">Thiết kế mục tiêu; xóa tài khoản chưa được xác nhận đã triển khai.</text><text x="1432.262" y="2811.769" fill="#000" font-size="39.844" textLength="739.833" font-family="Arial">Backup hết retention trong tối đa 30 ngày.</text><?plantuml-src XLLRQnj757xVNt5GNbggU3UEZ1C72fPaLyP2KP5K_608ezsnTl1gTZCxQySj1HS_v2bGv_9GaX2f9eKMJ5nIA6WVyh16_sFxItfcTYDMlkL1qkwSspVV-SwHPDAZqAjPrXByT_WIkhrqyaSBkcby1j_Zy-yjQ2PleP76pw4p7S4FoI5-dhU-W_DVq_ZD1dIJmmtOR3nKhaPe4yncBIml6U4kum4HP0XzOkyEX1znf-Pxle1zbqbQi3jqXqIUNFUvR94XXLN1Y7UrlSD-f71dkMWC6DorhC99w1B7tsTy03l42uk5Gleuejocy9C1M4Nu-ncWMtShIzMbHJniiXtQP9nMVU5GaLiNxz-lBzz3Qvi8oMmM42w_x73XqhVMA-lLzNl6puP1R8a7fTPWUfR6Rnc4QNmAJXg_vuCIa11w8HL6NuKISG2bjl1tc4VRX5ClisyODd8XV0zAgv5qmOHLsqP_2QegvOvsovyDXqZI9o65KgrJRsfJlOePF8_Qalayn2nxw2EWWxZ8W6gN_Dam51gu_IrMNO6QcyRFE4YN-22JiPtfnY2UX5ewEGs0k_WZ0TrUG3WTcqGdHcPw6of73ca5shqkc0InczXlrqyd_zhGVjZfclMrvbft3MPnUSHSy2PBuwCXI44KQn_0m_Ud4Umb8tWS7QJnBrnH-awX-13DvwXNLsv4-YWI7aRKgt2xMB7c3uTCpgVA2Lg1vlGiCfsC60I2gTF9fmZiv6Cn86UmaTT3yp-eq5sNC1YcyMjcKDIgdgbNwaHXsqM8VqOtasS690ptKOpNSBMbkZHat9tB2QwYJE6TZDasLypPRdAANY7wN_3Du5sYKLqRFbT_v9BGdNb-cRwSZQwhMUWdOzIJcumGWEOb8qEBY-gjj9Ly9AYu4KDGg9OJVfcLN3cVYTdcNrrxup8yKRHe2V2lRs9EeZx-jY5mMV8NBy_naj5MsafUhCxjm1BcKmEncTqD4vm4u65nFB_CGCMop8frvm4crUuuMWTmVgnLK10tncfA6jTaorhI8CB1RUbHIUSc0nSEswFmZTuissfpO2LirczI3H4FYTu3EkErhRjQ-tKj-snsW3bq6FYISddbLHUj2hHypCXdBbaBbJ5hi8y1PR29xT8oz5MViKd9E9WvAs-yWzf4QjAFzCYzPiL-ckV7vqTuF_sc8jKEL1-38pRmzt2TvT3AiotNHNbCFc5hyLinynvRZosF7c3c2yh3IPcU4UoHsjudTh4q7YOdI2dJoDHiBnYgL1IW35HwGTNLaMl8Ue3WZnb64VmB0pv8HWSB2YeefFy3?></g></svg>