<svg xmlns="http://www.w3.org/2000/svg" xmlns:xlink="http://www.w3.org/1999/xlink" version="1.1" data-diagram-type="ACTIVITY" style="width:1343px;height:1600px;background:#FFFFFF;" width="1343.75px" height="1600px" viewBox="0 0 1343 1600" zoomAndPan="magnify" preserveAspectRatio="none" contentStyleType="text/css"><?plantuml 1.2026.8?><defs/><g font-family="sans-serif" lengthAdjust="spacing"><g class="title" data-source-line="1"><text x="209.319" y="103.537" fill="#000" font-size="43.75" textLength="918.942" font-weight="700" font-family="Arial">BIỂU ĐỒ HOẠT ĐỘNG — create_transaction</text></g><ellipse cx="665.665" cy="194.058" rx="31.25" ry="31.25" fill="#222" style="stroke:#222;stroke-width:3.125;"/><rect x="302.159" y="287.808" width="727.013" height="170.303" fill="#F4FBF8" style="stroke:#299D78;stroke-width:1.563;" rx="39.063" ry="39.063"/><text x="333.409" y="363.026" fill="#000" font-size="46.875" textLength="364.838" font-family="Arial">Điều kiện bắt đầu</text><text x="333.409" y="416.928" fill="#000" font-size="46.875" textLength="664.513" font-family="Arial">Đã đăng nhập; Category tồn tại.</text><rect x="323.079" y="520.612" width="685.173" height="116.402" fill="#F4FBF8" style="stroke:#299D78;stroke-width:1.563;" rx="39.063" ry="39.063"/><text x="354.329" y="595.83" fill="#000" font-size="46.875" textLength="622.673" font-family="Arial">Kiểm tra Category thuộc user.</text><rect x="408.978" y="699.513" width="513.374" height="116.402" fill="#F4FBF8" style="stroke:#299D78;stroke-width:1.563;" rx="39.063" ry="39.063"/><text x="440.228" y="774.731" fill="#000" font-size="46.875" textLength="450.874" font-family="Arial">Lấy type từ Category.</text><rect x="398.621" y="878.415" width="534.088" height="116.402" fill="#F4FBF8" style="stroke:#299D78;stroke-width:1.563;" rx="39.063" ry="39.063"/><text x="429.871" y="953.633" fill="#000" font-size="46.875" textLength="471.588" font-family="Arial">Kiểm tra amount/ngày.</text><rect x="308.659" y="1057.317" width="714.012" height="116.402" fill="#F4FBF8" style="stroke:#299D78;stroke-width:1.563;" rx="39.063" ry="39.063"/><text x="339.909" y="1132.535" fill="#000" font-size="46.875" textLength="651.512" font-family="Arial">Lưu Transaction và trả kết quả.</text><rect x="50" y="1236.218" width="1231.331" height="170.303" fill="#F4FBF8" style="stroke:#299D78;stroke-width:1.563;" rx="39.063" ry="39.063"/><text x="81.25" y="1311.436" fill="#000" font-size="46.875" textLength="161.591" font-family="Arial">Kết quả</text><text x="81.25" y="1365.338" fill="#000" font-size="46.875" textLength="1168.831" font-family="Arial">Transaction được commit với user_id và type chính xác.</text><ellipse cx="665.665" cy="1503.397" rx="34.375" ry="34.375" fill="none" style="stroke:#222;stroke-width:3.125;"/><ellipse cx="665.665" cy="1503.397" rx="18.75" ry="18.75" fill="#222" style="stroke:#222;stroke-width:3.125;"/><line x1="665.665" y1="225.308" x2="665.665" y2="287.808" style="stroke:#345B52;stroke-width:3.125;"/><polygon points="653.165,256.558,665.665,287.808,678.165,256.558,665.665,269.058" fill="#345B52" style="stroke:#345B52;stroke-width:3.125;stroke-linejoin:miter;stroke-miterlimit:10;"/><line x1="665.665" y1="458.112" x2="665.665" y2="520.612" style="stroke:#345B52;stroke-width:3.125;"/><polygon points="653.165,489.362,665.665,520.612,678.165,489.362,665.665,501.862" fill="#345B52" style="stroke:#345B52;stroke-width:3.125;stroke-linejoin:miter;stroke-miterlimit:10;"/><line x1="665.665" y1="637.013" x2="665.665" y2="699.513" style="stroke:#345B52;stroke-width:3.125;"/><polygon points="653.165,668.263,665.665,699.513,678.165,668.263,665.665,680.763" fill="#345B52" style="stroke:#345B52;stroke-width:3.125;stroke-linejoin:miter;stroke-miterlimit:10;"/><line x1="665.665" y1="815.915" x2="665.665" y2="878.415" style="stroke:#345B52;stroke-width:3.125;"/><polygon points="653.165,847.165,665.665,878.415,678.165,847.165,665.665,859.665" fill="#345B52" style="stroke:#345B52;stroke-width:3.125;stroke-linejoin:miter;stroke-miterlimit:10;"/><line x1="665.665" y1="994.817" x2="665.665" y2="1057.317" style="stroke:#345B52;stroke-width:3.125;"/><polygon points="653.165,1026.067,665.665,1057.317,678.165,1026.067,665.665,1038.567" fill="#345B52" style="stroke:#345B52;stroke-width:3.125;stroke-linejoin:miter;stroke-miterlimit:10;"/><line x1="665.665" y1="1173.718" x2="665.665" y2="1236.218" style="stroke:#345B52;stroke-width:3.125;"/><polygon points="653.165,1204.968,665.665,1236.218,678.165,1204.968,665.665,1217.468" fill="#345B52" style="stroke:#345B52;stroke-width:3.125;stroke-linejoin:miter;stroke-miterlimit:10;"/><line x1="665.665" y1="1406.522" x2="665.665" y2="1469.022" style="stroke:#345B52;stroke-width:3.125;"/><polygon points="653.165,1437.772,665.665,1469.022,678.165,1437.772,665.665,1450.272" fill="#345B52" style="stroke:#345B52;stroke-width:3.125;stroke-linejoin:miter;stroke-miterlimit:10;"/><?plantuml-src RL6xJiCm5Dtp5LTYvz5I0UtKWWg8gWp0XeJSn6si9dPmRbeAGk8ni9R7069fLI46LD4v6HWIyH_cIt0AWWYnsBxdt7DyV8qC7GgLJHLTx47ILz4DR6ohSB0xBUxhw_1nTWUcf0Jf0Kh2VM8Y4zpmsunxH18N6iHijwG8kBKg726XQpEa6TwYJH8uM1KSwyIbK9QCEF_pE-oOma8XIteCylFp6SItYIMwZBUWIHm_Ur6QhCEm1oS6GELFgfdgOhLINKuP8Iqglz7SoihQKegMfHJTRp2_MAWKSiQfuIEHQ1IJFbFHUG1jlLrnQAZm5I6vLk5piC-JVZpIHNAf4t5RXMEl1AjwMYqXUu0gkkLw3OTijWH6SKixNBgW1vdfiGCLFPWG-5JEbenYJOLF6krvD9M__3IcN4PFNFqudEEjU32bQk-J07P_VmWwyK0tgd04RHM-8Hm6-Zmr-IttULQHNBzFL3GomHIkon0wAdfaqrm7pFhoIrEPTZpcDXp5GrFR-IYyJm00?></g></svg>