<svg xmlns="http://www.w3.org/2000/svg" xmlns:xlink="http://www.w3.org/1999/xlink" version="1.1" data-diagram-type="ACTIVITY" style="width:1350px;height:1653px;background:#FFFFFF;" width="1350px" height="1653.125px" viewBox="0 0 1350 1653" zoomAndPan="magnify" preserveAspectRatio="none" contentStyleType="text/css"><?plantuml 1.2026.8?><defs/><g font-family="sans-serif" lengthAdjust="spacing"><g class="title" data-source-line="1"><text x="195.562" y="103.537" fill="#000" font-size="43.75" textLength="955.429" font-weight="700" font-family="Arial">BIỂU ĐỒ HOẠT ĐỘNG — create_conversation</text></g><ellipse cx="670.152" cy="194.058" rx="31.25" ry="31.25" fill="#222" style="stroke:#222;stroke-width:3.125;"/><rect x="165.917" y="287.808" width="1008.469" height="170.303" fill="#F4FBF8" style="stroke:#299D78;stroke-width:1.563;" rx="39.063" ry="39.063"/><text x="197.167" y="363.026" fill="#000" font-size="46.875" textLength="364.838" font-family="Arial">Điều kiện bắt đầu</text><text x="197.167" y="416.928" fill="#000" font-size="46.875" textLength="945.969" font-family="Arial">Đã đăng nhập; không truyền conversation_id.</text><rect x="224.545" y="520.612" width="891.212" height="116.402" fill="#F4FBF8" style="stroke:#299D78;stroke-width:1.563;" rx="39.063" ry="39.063"/><text x="255.795" y="595.83" fill="#000" font-size="46.875" textLength="828.712" font-family="Arial">Lấy tối đa 72 ký tự đầu câu hỏi làm title.</text><rect x="504.708" y="699.513" width="330.887" height="116.402" fill="#F4FBF8" style="stroke:#299D78;stroke-width:1.563;" rx="39.063" ry="39.063"/><text x="535.958" y="774.731" fill="#000" font-size="46.875" textLength="268.387" font-family="Arial">Gắn user_id.</text><rect x="486.478" y="878.415" width="367.348" height="116.402" fill="#F4FBF8" style="stroke:#299D78;stroke-width:1.563;" rx="39.063" ry="39.063"/><text x="517.728" y="953.633" fill="#000" font-size="46.875" textLength="304.848" font-family="Arial">Flush để có id.</text><rect x="112.599" y="1057.317" width="1115.105" height="116.402" fill="#F4FBF8" style="stroke:#299D78;stroke-width:1.563;" rx="39.063" ry="39.063"/><text x="143.849" y="1132.535" fill="#000" font-size="46.875" textLength="1052.605" font-family="Arial">Chỉ commit cùng messages sau khi AI thành công.</text><rect x="50" y="1236.218" width="1240.303" height="224.205" fill="#F4FBF8" style="stroke:#299D78;stroke-width:1.563;" rx="39.063" ry="39.063"/><text x="81.25" y="1311.436" fill="#000" font-size="46.875" textLength="161.591" font-family="Arial">Kết quả</text><text x="81.25" y="1365.338" fill="#000" font-size="46.875" textLength="1177.803" font-family="Arial">Thành công - conversation có cặp message đầu tiên. Lỗi</text><text x="81.25" y="1419.24" fill="#000" font-size="46.875" textLength="260.49" font-family="Arial">AI - rollback.</text><ellipse cx="670.152" cy="1557.298" rx="34.375" ry="34.375" fill="none" style="stroke:#222;stroke-width:3.125;"/><ellipse cx="670.152" cy="1557.298" rx="18.75" ry="18.75" fill="#222" style="stroke:#222;stroke-width:3.125;"/><line x1="670.152" y1="225.308" x2="670.152" y2="287.808" style="stroke:#345B52;stroke-width:3.125;"/><polygon points="657.652,256.558,670.152,287.808,682.652,256.558,670.152,269.058" fill="#345B52" style="stroke:#345B52;stroke-width:3.125;stroke-linejoin:miter;stroke-miterlimit:10;"/><line x1="670.152" y1="458.112" x2="670.152" y2="520.612" style="stroke:#345B52;stroke-width:3.125;"/><polygon points="657.652,489.362,670.152,520.612,682.652,489.362,670.152,501.862" fill="#345B52" style="stroke:#345B52;stroke-width:3.125;stroke-linejoin:miter;stroke-miterlimit:10;"/><line x1="670.152" y1="637.013" x2="670.152" y2="699.513" style="stroke:#345B52;stroke-width:3.125;"/><polygon points="657.652,668.263,670.152,699.513,682.652,668.263,670.152,680.763" fill="#345B52" style="stroke:#345B52;stroke-width:3.125;stroke-linejoin:miter;stroke-miterlimit:10;"/><line x1="670.152" y1="815.915" x2="670.152" y2="878.415" style="stroke:#345B52;stroke-width:3.125;"/><polygon points="657.652,847.165,670.152,878.415,682.652,847.165,670.152,859.665" fill="#345B52" style="stroke:#345B52;stroke-width:3.125;stroke-linejoin:miter;stroke-miterlimit:10;"/><line x1="670.152" y1="994.817" x2="670.152" y2="1057.317" style="stroke:#345B52;stroke-width:3.125;"/><polygon points="657.652,1026.067,670.152,1057.317,682.652,1026.067,670.152,1038.567" fill="#345B52" style="stroke:#345B52;stroke-width:3.125;stroke-linejoin:miter;stroke-miterlimit:10;"/><line x1="670.152" y1="1173.718" x2="670.152" y2="1236.218" style="stroke:#345B52;stroke-width:3.125;"/><polygon points="657.652,1204.968,670.152,1236.218,682.652,1204.968,670.152,1217.468" fill="#345B52" style="stroke:#345B52;stroke-width:3.125;stroke-linejoin:miter;stroke-miterlimit:10;"/><line x1="670.152" y1="1460.423" x2="670.152" y2="1522.923" style="stroke:#345B52;stroke-width:3.125;"/><polygon points="657.652,1491.673,670.152,1522.923,682.652,1491.673,670.152,1504.173" fill="#345B52" style="stroke:#345B52;stroke-width:3.125;stroke-linejoin:miter;stroke-miterlimit:10;"/><?plantuml-src RLB1QXH14BtFLnHupX8tMM9sJxkHYS4G3yRRGkZCTBQBwUaUkskoh2AeEOWdDoAOuv8WWY0Y2k8Cuc7cHzeliMVTm2YUcdglNxrNrKr8aiDepvNF7q0zT-Lhk7FF5Ol3PN5ni0k_dhw1o716_2ZIwfGRomYr2co2AcE6fN3CecHYTAxY7IsrWQb0uYq-vYSibnHgHGSivJ0qoEJ_-VluYCFDNflC43RMrrk85IpMKrGJE67IjerOH7YAD8F70S3edrGtmirm5Dvg66rYRbPeTtlxzbQ33etHqnMuiTaRzRh1ay0ICnJqwpcwybaEYJzUA3XsnIU2-jmLx_EngkVLbI_gCvz82LTyp0QGYEghBydaCozKqDxS4SQT0GJzVLUycm6vyXozdC5M5vBgHmDyNlM6gBhCGRZo5OAi5YbGyrgTGT3VzGaKv9QRPRUW7yhSYaPMdddL5_Y3xdZjIs-UfaWU_kuZfTnQDk4MBFFp28JX7f2e5ahu2pvp8xlhYfy43tDNN8tLOOk4jRycMJf5hlYMNRUz3avOVL0Ts7VbMnmhRx46HalP_1HlO4bdlm40?></g></svg>