<svg xmlns="http://www.w3.org/2000/svg" xmlns:xlink="http://www.w3.org/1999/xlink" version="1.1" data-diagram-type="ACTIVITY" style="width:1271px;height:1653px;background:#FFFFFF;" width="1271.875px" height="1653.125px" viewBox="0 0 1271 1653" zoomAndPan="magnify" preserveAspectRatio="none" contentStyleType="text/css"><?plantuml 1.2026.8?><defs/><g font-family="sans-serif" lengthAdjust="spacing"><g class="title" data-source-line="1"><text x="273.892" y="103.537" fill="#000" font-size="43.75" textLength="719.461" font-weight="700" font-family="Arial">BIỂU ĐỒ HOẠT ĐỘNG — withdraw</text></g><ellipse cx="630.498" cy="194.058" rx="31.25" ry="31.25" fill="#222" style="stroke:#222;stroke-width:3.125;"/><rect x="143.269" y="287.808" width="974.457" height="170.303" fill="#F4FBF8" style="stroke:#299D78;stroke-width:1.563;" rx="39.063" ry="39.063"/><text x="174.519" y="363.026" fill="#000" font-size="46.875" textLength="364.838" font-family="Arial">Điều kiện bắt đầu</text><text x="174.519" y="416.928" fill="#000" font-size="46.875" textLength="911.957" font-family="Arial">Goal active, thuộc user; current_amount đủ.</text><rect x="386.914" y="520.612" width="487.167" height="116.402" fill="#F4FBF8" style="stroke:#299D78;stroke-width:1.563;" rx="39.063" ry="39.063"/><text x="418.164" y="595.83" fill="#000" font-size="46.875" textLength="424.667" font-family="Arial">Kiểm tra goal active.</text><rect x="375.172" y="699.513" width="510.651" height="116.402" fill="#F4FBF8" style="stroke:#299D78;stroke-width:1.563;" rx="39.063" ry="39.063"/><text x="406.422" y="774.731" fill="#000" font-size="46.875" textLength="448.151" font-family="Arial">Tính current_amount.</text><rect x="271.146" y="878.415" width="718.704" height="116.402" fill="#F4FBF8" style="stroke:#299D78;stroke-width:1.563;" rx="39.063" ry="39.063"/><text x="302.396" y="953.633" fill="#000" font-size="46.875" textLength="656.204" font-family="Arial">Chặn nếu amount vượt current.</text><rect x="340.062" y="1057.317" width="580.872" height="116.402" fill="#F4FBF8" style="stroke:#299D78;stroke-width:1.563;" rx="39.063" ry="39.063"/><text x="371.312" y="1132.535" fill="#000" font-size="46.875" textLength="518.372" font-family="Arial">Tạo withdraw và commit.</text><rect x="50" y="1236.218" width="1160.995" height="224.205" fill="#F4FBF8" style="stroke:#299D78;stroke-width:1.563;" rx="39.063" ry="39.063"/><text x="81.25" y="1311.436" fill="#000" font-size="46.875" textLength="161.591" font-family="Arial">Kết quả</text><text x="81.25" y="1365.338" fill="#000" font-size="46.875" textLength="1098.495" font-family="Arial">Withdraw được ghi; current_amount giảm; tiền trở lại</text><text x="81.25" y="1419.24" fill="#000" font-size="46.875" textLength="338.905" font-family="Arial">số dư khả dụng.</text><ellipse cx="630.498" cy="1557.298" rx="34.375" ry="34.375" fill="none" style="stroke:#222;stroke-width:3.125;"/><ellipse cx="630.498" cy="1557.298" rx="18.75" ry="18.75" fill="#222" style="stroke:#222;stroke-width:3.125;"/><line x1="630.498" y1="225.308" x2="630.498" y2="287.808" style="stroke:#345B52;stroke-width:3.125;"/><polygon points="617.998,256.558,630.498,287.808,642.998,256.558,630.498,269.058" fill="#345B52" style="stroke:#345B52;stroke-width:3.125;stroke-linejoin:miter;stroke-miterlimit:10;"/><line x1="630.498" y1="458.112" x2="630.498" y2="520.612" style="stroke:#345B52;stroke-width:3.125;"/><polygon points="617.998,489.362,630.498,520.612,642.998,489.362,630.498,501.862" fill="#345B52" style="stroke:#345B52;stroke-width:3.125;stroke-linejoin:miter;stroke-miterlimit:10;"/><line x1="630.498" y1="637.013" x2="630.498" y2="699.513" style="stroke:#345B52;stroke-width:3.125;"/><polygon points="617.998,668.263,630.498,699.513,642.998,668.263,630.498,680.763" fill="#345B52" style="stroke:#345B52;stroke-width:3.125;stroke-linejoin:miter;stroke-miterlimit:10;"/><line x1="630.498" y1="815.915" x2="630.498" y2="878.415" style="stroke:#345B52;stroke-width:3.125;"/><polygon points="617.998,847.165,630.498,878.415,642.998,847.165,630.498,859.665" fill="#345B52" style="stroke:#345B52;stroke-width:3.125;stroke-linejoin:miter;stroke-miterlimit:10;"/><line x1="630.498" y1="994.817" x2="630.498" y2="1057.317" style="stroke:#345B52;stroke-width:3.125;"/><polygon points="617.998,1026.067,630.498,1057.317,642.998,1026.067,630.498,1038.567" fill="#345B52" style="stroke:#345B52;stroke-width:3.125;stroke-linejoin:miter;stroke-miterlimit:10;"/><line x1="630.498" y1="1173.718" x2="630.498" y2="1236.218" style="stroke:#345B52;stroke-width:3.125;"/><polygon points="617.998,1204.968,630.498,1236.218,642.998,1204.968,630.498,1217.468" fill="#345B52" style="stroke:#345B52;stroke-width:3.125;stroke-linejoin:miter;stroke-miterlimit:10;"/><line x1="630.498" y1="1460.423" x2="630.498" y2="1522.923" style="stroke:#345B52;stroke-width:3.125;"/><polygon points="617.998,1491.673,630.498,1522.923,642.998,1491.673,630.498,1504.173" fill="#345B52" style="stroke:#345B52;stroke-width:3.125;stroke-linejoin:miter;stroke-miterlimit:10;"/><?plantuml-src RL7FIXj17BxlKtpGguXLGpKv6Kji4VHGfPU0ZBlZxf3TcJZxcooj2AqzU3NYGKygGJo9teITGmy6tsDy4YVRM8FjQPZlFpCaAELeVdRsO1F38sUFyMdTbHSRrULqRGLFFqvG24eYpOeWxmZPPPfbs6PX9zRAo6XPfKgZI0Jn2JxYEyoar5AIrbZ6iQG5I__FVn7VETxN9ickmDpCp0II9onIXP0nTbYQJnQna4HFq3Vi1K3ppQfthVbMixKmOfIEk1wZiukB7p-Cq2MjLJ46v-PhpTfii1_an3G5zU6HSFQdGSSVXnBRhhmb3Fkkl3PjkQ9O-gUQJu4Iu-nP29DptK1ejEQIjbZcTrGEUptTG51VzK6_Cf1cY5_jqusWll5m8vCtnX6-dBZoNaAwyhV1EA_tUEViW5xKbTsLb-hl9w7tS85GPPceo5Ll9kmQLmxQykkBPjYlOaB4YVXdSYoyE6k0HWyW_M1dpv7w4j6MkRDzH8ztwFXj0qJENidOz-Iakiy0?></g></svg>