<svg xmlns="http://www.w3.org/2000/svg" xmlns:xlink="http://www.w3.org/1999/xlink" version="1.1" data-diagram-type="SEQUENCE" style="width:3493px;height:2746px;background:#FFFFFF;" width="3493.75px" height="2746.875px" viewBox="0 0 3493 2746" zoomAndPan="magnify" preserveAspectRatio="none" contentStyleType="text/css"><?plantuml 1.2026.8?><defs/><g font-family="sans-serif" lengthAdjust="spacing"><g class="title" data-source-line="1"><text x="1418.568" y="87.912" fill="#000" font-size="43.75" textLength="651.273" font-weight="700" font-family="Arial">BIỂU ĐỒ TUẦN TỰ — add_item</text></g><rect x="244.702" y="1490.25" width="2283.887" height="874.316" fill="none" style="stroke:#000;stroke-width:4.688;"/><g><title>Ng..i s. d.ng</title><rect x="283.765" y="420.926" width="25" height="2018.64" fill="#000" fill-opacity="0"/><line x1="294.702" y1="420.926" x2="294.702" y2="2439.566" style="stroke:#299D78;stroke-width:1.563;stroke-dasharray:15.625,15.625;"/></g><g><title>M.n h.nh M.c ti.u ti.t ki.m</title><rect x="1413.892" y="420.926" width="25" height="2018.64" fill="#000" fill-opacity="0"/><line x1="1424.829" y1="420.926" x2="1424.829" y2="2439.566" style="stroke:#299D78;stroke-width:1.563;stroke-dasharray:15.625,15.625;"/></g><g><title>Backend</title><rect x="2467.651" y="420.926" width="25" height="2018.64" fill="#000" fill-opacity="0"/><line x1="2478.589" y1="420.926" x2="2478.589" y2="2439.566" style="stroke:#299D78;stroke-width:1.563;stroke-dasharray:15.625,15.625;"/></g><g><title></title><rect x="2462.964" y="680.911" width="31.25" height="1727.405" fill="#FFF" style="stroke:#181818;stroke-width:3.125;"/></g><g><title>CSDL</title><rect x="3339.941" y="420.926" width="25" height="2018.64" fill="#000" fill-opacity="0"/><line x1="3350.879" y1="420.926" x2="3350.879" y2="2439.566" style="stroke:#299D78;stroke-width:1.563;stroke-dasharray:15.625,15.625;"/></g><text x="31.25" y="405.032" fill="#000" font-size="75" textLength="508.154" font-family="Arial">Người sử dụng</text><ellipse cx="294.702" cy="173.746" rx="25" ry="25" fill="#E2E2F0" style="stroke:#181818;stroke-width:1.563;"/><path d="M294.702,198.746 L294.702,283.121 M254.077,223.746 L335.327,223.746 M294.702,283.121 L254.077,329.996 M294.702,283.121 L335.327,329.996" style="stroke:#181818;stroke-width:1.563;" fill="none"/><text x="956.921" y="405.032" fill="#000" font-size="75" textLength="917.065" font-family="Arial">Màn hình Mục tiêu tiết kiệm</text><path d="M1360.767,247.183 L1360.767,322.183 M1360.767,284.683 L1413.892,284.683" style="stroke:#181818;stroke-width:1.563;" fill="none"/><ellipse cx="1451.392" cy="284.683" rx="37.5" ry="37.5" fill="#E2E2F0" style="stroke:#181818;stroke-width:1.563;"/><text x="2323.279" y="318.79" fill="#000" font-size="75" textLength="291.87" font-family="Arial">Backend</text><text x="2207.666" y="405.032" fill="#000" font-size="75" textLength="523.096" font-family="Arial">(Router + Core)</text><ellipse cx="2478.589" cy="198.441" rx="37.5" ry="37.5" fill="#E2E2F0" style="stroke:#181818;stroke-width:1.563;"/><polygon points="2466.089,160.941,2484.839,145.316,2478.589,160.941,2484.839,176.566,2466.089,160.941" fill="#181818" style="stroke:#181818;stroke-width:3.125;stroke-linejoin:miter;stroke-miterlimit:10;"/><text x="3241.473" y="405.032" fill="#000" font-size="75" textLength="200.061" font-family="Arial">CSDL</text><path d="M3294.629,222.183 C3294.629,190.933 3350.879,190.933 3350.879,190.933 C3350.879,190.933 3407.129,190.933 3407.129,222.183 L3407.129,303.433 C3407.129,334.683 3350.879,334.683 3350.879,334.683 C3350.879,334.683 3294.629,334.683 3294.629,303.433 L3294.629,222.183" style="stroke:#181818;stroke-width:1.563;" fill="#E2E2F0"/><path d="M3294.629,222.183 C3294.629,253.433 3350.879,253.433 3350.879,253.433 C3350.879,253.433 3407.129,253.433 3407.129,222.183" style="stroke:#181818;stroke-width:1.563;" fill="none"/><text x="31.25" y="2509.915" fill="#000" font-size="75" textLength="508.154" font-family="Arial">Người sử dụng</text><ellipse cx="294.702" cy="2552.371" rx="25" ry="25" fill="#E2E2F0" style="stroke:#181818;stroke-width:1.563;"/><path d="M294.702,2577.371 L294.702,2661.746 M254.077,2602.371 L335.327,2602.371 M294.702,2661.746 L254.077,2708.621 M294.702,2661.746 L335.327,2708.621" style="stroke:#181818;stroke-width:1.563;" fill="none"/><text x="956.921" y="2509.915" fill="#000" font-size="75" textLength="917.065" font-family="Arial">Màn hình Mục tiêu tiết kiệm</text><path d="M1360.767,2538.309 L1360.767,2613.309 M1360.767,2575.809 L1413.892,2575.809" style="stroke:#181818;stroke-width:1.563;" fill="none"/><ellipse cx="1451.392" cy="2575.809" rx="37.5" ry="37.5" fill="#E2E2F0" style="stroke:#181818;stroke-width:1.563;"/><text x="2323.279" y="2509.915" fill="#000" font-size="75" textLength="291.87" font-family="Arial">Backend</text><text x="2207.666" y="2596.158" fill="#000" font-size="75" textLength="523.096" font-family="Arial">(Router + Core)</text><ellipse cx="2478.589" cy="2662.051" rx="37.5" ry="37.5" fill="#E2E2F0" style="stroke:#181818;stroke-width:1.563;"/><polygon points="2466.089,2624.551,2484.839,2608.926,2478.589,2624.551,2484.839,2640.176,2466.089,2624.551" fill="#181818" style="stroke:#181818;stroke-width:3.125;stroke-linejoin:miter;stroke-miterlimit:10;"/><text x="3241.473" y="2509.915" fill="#000" font-size="75" textLength="200.061" font-family="Arial">CSDL</text><path d="M3294.629,2557.059 C3294.629,2525.809 3350.879,2525.809 3350.879,2525.809 C3350.879,2525.809 3407.129,2525.809 3407.129,2557.059 L3407.129,2638.309 C3407.129,2669.559 3350.879,2669.559 3350.879,2669.559 C3350.879,2669.559 3294.629,2669.559 3294.629,2638.309 L3294.629,2557.059" style="stroke:#181818;stroke-width:1.563;" fill="#E2E2F0"/><path d="M3294.629,2557.059 C3294.629,2588.309 3350.879,2588.309 3350.879,2588.309 C3350.879,2588.309 3407.129,2588.309 3407.129,2557.059" style="stroke:#181818;stroke-width:1.563;" fill="none"/><polygon points="1387.329,538.419,1418.579,550.919,1387.329,563.419,1399.829,550.919" fill="#345B52" style="stroke:#345B52;stroke-width:3.125;stroke-linejoin:miter;stroke-miterlimit:10;"/><line x1="294.702" y1="550.919" x2="1406.079" y2="550.919" style="stroke:#345B52;stroke-width:3.125;"/><text x="316.577" y="528.775" fill="#000" font-size="75" textLength="508.667" font-family="Arial">Chọn add_item</text><polygon points="2425.464,668.411,2456.714,680.911,2425.464,693.411,2437.964,680.911" fill="#345B52" style="stroke:#345B52;stroke-width:3.125;stroke-linejoin:miter;stroke-miterlimit:10;"/><line x1="1424.829" y1="680.911" x2="2444.214" y2="680.911" style="stroke:#345B52;stroke-width:3.125;"/><text x="1446.704" y="658.768" fill="#000" font-size="75" textLength="738.098" font-family="Arial">Gửi yêu cầu add_item</text><line x1="2494.214" y1="810.904" x2="2625.464" y2="810.904" style="stroke:#345B52;stroke-width:3.125;"/><line x1="2625.464" y1="810.904" x2="2625.464" y2="851.529" style="stroke:#345B52;stroke-width:3.125;"/><line x1="2497.339" y1="851.529" x2="2625.464" y2="851.529" style="stroke:#345B52;stroke-width:3.125;"/><polygon points="2528.589,839.029,2497.339,851.529,2528.589,864.029,2516.089,851.529" fill="#345B52" style="stroke:#345B52;stroke-width:3.125;stroke-linejoin:miter;stroke-miterlimit:10;"/><text x="2516.089" y="788.76" fill="#000" font-size="75" textLength="812.915" font-family="Arial">Kiểm tra goal thuộc user</text><line x1="2494.214" y1="981.522" x2="2625.464" y2="981.522" style="stroke:#345B52;stroke-width:3.125;"/><line x1="2625.464" y1="981.522" x2="2625.464" y2="1022.147" style="stroke:#345B52;stroke-width:3.125;"/><line x1="2497.339" y1="1022.147" x2="2625.464" y2="1022.147" style="stroke:#345B52;stroke-width:3.125;"/><polygon points="2528.589,1009.647,2497.339,1022.147,2528.589,1034.647,2516.089,1022.147" fill="#345B52" style="stroke:#345B52;stroke-width:3.125;stroke-linejoin:miter;stroke-miterlimit:10;"/><text x="2516.089" y="959.378" fill="#000" font-size="75" textLength="562.72" font-family="Arial">Kiểm tra tên/cost</text><line x1="2494.214" y1="1152.139" x2="2625.464" y2="1152.139" style="stroke:#345B52;stroke-width:3.125;"/><line x1="2625.464" y1="1152.139" x2="2625.464" y2="1192.764" style="stroke:#345B52;stroke-width:3.125;"/><line x1="2497.339" y1="1192.764" x2="2625.464" y2="1192.764" style="stroke:#345B52;stroke-width:3.125;"/><polygon points="2528.589,1180.264,2497.339,1192.764,2528.589,1205.264,2516.089,1192.764" fill="#345B52" style="stroke:#345B52;stroke-width:3.125;stroke-linejoin:miter;stroke-miterlimit:10;"/><text x="2516.089" y="1129.996" fill="#000" font-size="75" textLength="454.358" font-family="Arial">Tạo GoalItem</text><polygon points="3313.379,1310.257,3344.629,1322.757,3313.379,1335.257,3325.879,1322.757" fill="#345B52" style="stroke:#345B52;stroke-width:3.125;stroke-linejoin:miter;stroke-miterlimit:10;"/><line x1="2494.214" y1="1322.757" x2="3332.129" y2="1322.757" style="stroke:#345B52;stroke-width:3.125;"/><text x="2516.089" y="1300.613" fill="#000" font-size="75" textLength="766.882" font-family="Arial">Commit và trả GoalOut</text><polygon points="2528.589,1440.25,2497.339,1452.75,2528.589,1465.25,2516.089,1452.75" fill="#345B52" style="stroke:#345B52;stroke-width:3.125;stroke-linejoin:miter;stroke-miterlimit:10;"/><line x1="2509.839" y1="1452.75" x2="3347.754" y2="1452.75" style="stroke:#345B52;stroke-width:3.125;stroke-dasharray:6.25,6.25;"/><text x="2547.339" y="1430.606" fill="#000" font-size="75" textLength="258.545" font-family="Arial">Kết quả</text><path d="M244.702,1490.25 L472.852,1490.25 L472.852,1551.492 L441.602,1582.742 L244.702,1582.742 L244.702,1490.25" style="stroke:#000;stroke-width:4.688;" fill="#EEE"/><rect x="244.702" y="1490.25" width="2283.887" height="874.316" fill="none" style="stroke:#000;stroke-width:4.688;"/><text x="291.577" y="1563.724" fill="#000" font-size="75" textLength="87.524" font-weight="700" font-family="Arial">alt</text><text x="519.727" y="1566.849" fill="#000" font-size="75" textLength="662.622" font-weight="700" font-family="Arial">[Xử lý thành công]</text><polygon points="1459.204,1832.095,1427.954,1844.595,1459.204,1857.095,1446.704,1844.595" fill="#345B52" style="stroke:#345B52;stroke-width:3.125;stroke-linejoin:miter;stroke-miterlimit:10;"/><line x1="1440.454" y1="1844.595" x2="2459.839" y2="1844.595" style="stroke:#345B52;stroke-width:3.125;stroke-dasharray:6.25,6.25;"/><text x="1477.954" y="1736.209" fill="#000" font-size="75" textLength="963.135" font-family="Arial">Item thuộc đúng goal và xuất</text><text x="1477.954" y="1822.452" fill="#000" font-size="75" textLength="679.651" font-family="Arial">hiện trong kế hoạch.</text><polygon points="329.077,1962.088,297.827,1974.588,329.077,1987.088,316.577,1974.588" fill="#345B52" style="stroke:#345B52;stroke-width:3.125;stroke-linejoin:miter;stroke-miterlimit:10;"/><line x1="310.327" y1="1974.588" x2="1421.704" y2="1974.588" style="stroke:#345B52;stroke-width:3.125;stroke-dasharray:6.25,6.25;"/><text x="347.827" y="1952.444" fill="#000" font-size="75" textLength="521.155" font-family="Arial">Hiển thị kết quả</text><line x1="244.702" y1="2002.713" x2="2528.589" y2="2002.713" style="stroke:#000;stroke-width:3.125;stroke-dasharray:6.25,6.25;"/><text x="260.327" y="2079.312" fill="#000" font-size="75" textLength="1307.886" font-weight="700" font-family="Arial">[Dữ liệu không hợp lệ hoặc lỗi xử lý]</text><polygon points="1459.204,2197.073,1427.954,2209.573,1459.204,2222.073,1446.704,2209.573" fill="#345B52" style="stroke:#345B52;stroke-width:3.125;stroke-linejoin:miter;stroke-miterlimit:10;"/><line x1="1440.454" y1="2209.573" x2="2459.839" y2="2209.573" style="stroke:#345B52;stroke-width:3.125;stroke-dasharray:6.25,6.25;"/><text x="1477.954" y="2187.43" fill="#000" font-size="75" textLength="954.016" font-family="Arial">Mã lỗi và thông báo phù hợp</text><polygon points="329.077,2327.066,297.827,2339.566,329.077,2352.066,316.577,2339.566" fill="#345B52" style="stroke:#345B52;stroke-width:3.125;stroke-linejoin:miter;stroke-miterlimit:10;"/><line x1="310.327" y1="2339.566" x2="1421.704" y2="2339.566" style="stroke:#345B52;stroke-width:3.125;stroke-dasharray:6.25,6.25;"/><text x="347.827" y="2317.422" fill="#000" font-size="75" textLength="1055.127" font-family="Arial">Hiển thị lỗi, giữ dữ liệu cần thiết</text><?plantuml-src XL9DQnD16BxlhtX9BufMIvfYcuFWPaaDDb5i0XuACjcTx0xPdKbdPvjM4KGF7aHG4SI3K0bLA8ez268MyR35_p7-4j_Ph6bQWhtaOvxdVPxd_L1CXHJiXawVTE3ufKvVGxkZnnzRqDRf4Vnv_0Q8vzrdYaPMt6TyG2I9e4lSlYz5mhsQ28M4OO246ToZFPA4gYwuQf68mWt9I3WVtsGFA9Ghi-20mVBIqinB711F31dteKV2UDOefji9vIw5XnQWYnJ3IQ25vSgAlLB6nmtMenkCKrj8Zye2BQ-jETTM4Rr3f68k6n2kpYUSQNgXNgdRzLNhaKLSXVzBBV_taKxVCuXr-WKydHvmlmGaXavCfTKrbKJkGQcPxNC8iiyyW2QIN50iEqpmKuz_AUWpdJwB9dKDoyKHIH52oRXJxctn2tT5egY4Ir0JabxCYGLeUKIHBeafb6gRpaOEERPbx67nEifLeHRez0K_sMcdOP2YlWhhc9p1dedZwl6dv8I8FR8TekZKg_W-LNuBip-DG4a2lY0Xg23HwJiN4ZE0SmfKTiYlkY9MSubjFVuWO1r56oRD3CMniIiHHKp1JhQFKdeyoect4sKvDYoUyij7l9qWnoAXWdjcKs7s4vFYKW9mis_SnxLFzOkn6TDfDyUliZ7UOjwXiTn5kGErnGEpEOu91A9zT890O6mtk8AAPj1632THXPkcRMJYCfxdp7-PA9utE3hz2g4HIw0Vc4I0nD40GdpADR-xvlTR1hj5_ZcHczce8ELZcUXqCvpY8CX-J1J_coillWm-Ct6ycKpcCWmflrShlpjwzZp-0W00?></g></svg>