<svg xmlns="http://www.w3.org/2000/svg" xmlns:xlink="http://www.w3.org/1999/xlink" version="1.1" data-diagram-type="SEQUENCE" style="width:3712px;height:3181px;background:#FFFFFF;" width="3712.5px" height="3181.25px" viewBox="0 0 3712 3181" zoomAndPan="magnify" preserveAspectRatio="none" contentStyleType="text/css"><?plantuml 1.2026.8?><defs/><g font-family="sans-serif" lengthAdjust="spacing"><g class="title" data-source-line="1"><text x="1471.628" y="87.912" fill="#000" font-size="43.75" textLength="765.54" font-weight="700" font-family="Arial">BIỂU ĐỒ TUẦN TỰ — complete_goal</text></g><rect x="244.702" y="1838.345" width="2316.626" height="960.559" fill="none" style="stroke:#000;stroke-width:4.688;"/><g><title>Ng..i s. d.ng</title><rect x="283.765" y="420.926" width="25" height="2452.979" fill="#000" fill-opacity="0"/><line x1="294.702" y1="420.926" x2="294.702" y2="2873.904" style="stroke:#299D78;stroke-width:1.563;stroke-dasharray:15.625,15.625;"/></g><g><title>M.n h.nh M.c ti.u ti.t ki.m</title><rect x="1413.892" y="420.926" width="25" height="2452.979" fill="#000" fill-opacity="0"/><line x1="1424.829" y1="420.926" x2="1424.829" y2="2873.904" style="stroke:#299D78;stroke-width:1.563;stroke-dasharray:15.625,15.625;"/></g><g><title>Backend</title><rect x="2500.391" y="420.926" width="25" height="2452.979" fill="#000" fill-opacity="0"/><line x1="2511.328" y1="420.926" x2="2511.328" y2="2873.904" style="stroke:#299D78;stroke-width:1.563;stroke-dasharray:15.625,15.625;"/></g><g><title></title><rect x="2495.703" y="680.911" width="31.25" height="2161.743" fill="#FFF" style="stroke:#181818;stroke-width:3.125;"/></g><g><title>CSDL</title><rect x="3560.327" y="420.926" width="25" height="2452.979" fill="#000" fill-opacity="0"/><line x1="3571.265" y1="420.926" x2="3571.265" y2="2873.904" style="stroke:#299D78;stroke-width:1.563;stroke-dasharray:15.625,15.625;"/></g><text x="31.25" y="405.032" fill="#000" font-size="75" textLength="508.154" font-family="Arial">Người sử dụng</text><ellipse cx="294.702" cy="173.746" rx="25" ry="25" fill="#E2E2F0" style="stroke:#181818;stroke-width:1.563;"/><path d="M294.702,198.746 L294.702,283.121 M254.077,223.746 L335.327,223.746 M294.702,283.121 L254.077,329.996 M294.702,283.121 L335.327,329.996" style="stroke:#181818;stroke-width:1.563;" fill="none"/><text x="956.921" y="405.032" fill="#000" font-size="75" textLength="917.065" font-family="Arial">Màn hình Mục tiêu tiết kiệm</text><path d="M1360.767,247.183 L1360.767,322.183 M1360.767,284.683 L1413.892,284.683" style="stroke:#181818;stroke-width:1.563;" fill="none"/><ellipse cx="1451.392" cy="284.683" rx="37.5" ry="37.5" fill="#E2E2F0" style="stroke:#181818;stroke-width:1.563;"/><text x="2356.018" y="318.79" fill="#000" font-size="75" textLength="291.87" font-family="Arial">Backend</text><text x="2240.405" y="405.032" fill="#000" font-size="75" textLength="523.096" font-family="Arial">(Router + Core)</text><ellipse cx="2511.328" cy="198.441" rx="37.5" ry="37.5" fill="#E2E2F0" style="stroke:#181818;stroke-width:1.563;"/><polygon points="2498.828,160.941,2517.578,145.316,2511.328,160.941,2517.578,176.566,2498.828,160.941" fill="#181818" style="stroke:#181818;stroke-width:3.125;stroke-linejoin:miter;stroke-miterlimit:10;"/><text x="3461.859" y="405.032" fill="#000" font-size="75" textLength="200.061" font-family="Arial">CSDL</text><path d="M3515.015,222.183 C3515.015,190.933 3571.265,190.933 3571.265,190.933 C3571.265,190.933 3627.515,190.933 3627.515,222.183 L3627.515,303.433 C3627.515,334.683 3571.265,334.683 3571.265,334.683 C3571.265,334.683 3515.015,334.683 3515.015,303.433 L3515.015,222.183" style="stroke:#181818;stroke-width:1.563;" fill="#E2E2F0"/><path d="M3515.015,222.183 C3515.015,253.433 3571.265,253.433 3571.265,253.433 C3571.265,253.433 3627.515,253.433 3627.515,222.183" style="stroke:#181818;stroke-width:1.563;" fill="none"/><text x="31.25" y="2944.254" fill="#000" font-size="75" textLength="508.154" font-family="Arial">Người sử dụng</text><ellipse cx="294.702" cy="2986.71" rx="25" ry="25" fill="#E2E2F0" style="stroke:#181818;stroke-width:1.563;"/><path d="M294.702,3011.71 L294.702,3096.085 M254.077,3036.71 L335.327,3036.71 M294.702,3096.085 L254.077,3142.96 M294.702,3096.085 L335.327,3142.96" style="stroke:#181818;stroke-width:1.563;" fill="none"/><text x="956.921" y="2944.254" fill="#000" font-size="75" textLength="917.065" font-family="Arial">Màn hình Mục tiêu tiết kiệm</text><path d="M1360.767,2972.647 L1360.767,3047.647 M1360.767,3010.147 L1413.892,3010.147" style="stroke:#181818;stroke-width:1.563;" fill="none"/><ellipse cx="1451.392" cy="3010.147" rx="37.5" ry="37.5" fill="#E2E2F0" style="stroke:#181818;stroke-width:1.563;"/><text x="2356.018" y="2944.254" fill="#000" font-size="75" textLength="291.87" font-family="Arial">Backend</text><text x="2240.405" y="3030.496" fill="#000" font-size="75" textLength="523.096" font-family="Arial">(Router + Core)</text><ellipse cx="2511.328" cy="3096.39" rx="37.5" ry="37.5" fill="#E2E2F0" style="stroke:#181818;stroke-width:1.563;"/><polygon points="2498.828,3058.89,2517.578,3043.265,2511.328,3058.89,2517.578,3074.515,2498.828,3058.89" fill="#181818" style="stroke:#181818;stroke-width:3.125;stroke-linejoin:miter;stroke-miterlimit:10;"/><text x="3461.859" y="2944.254" fill="#000" font-size="75" textLength="200.061" font-family="Arial">CSDL</text><path d="M3515.015,2991.397 C3515.015,2960.147 3571.265,2960.147 3571.265,2960.147 C3571.265,2960.147 3627.515,2960.147 3627.515,2991.397 L3627.515,3072.647 C3627.515,3103.897 3571.265,3103.897 3571.265,3103.897 C3571.265,3103.897 3515.015,3103.897 3515.015,3072.647 L3515.015,2991.397" style="stroke:#181818;stroke-width:1.563;" fill="#E2E2F0"/><path d="M3515.015,2991.397 C3515.015,3022.647 3571.265,3022.647 3571.265,3022.647 C3571.265,3022.647 3627.515,3022.647 3627.515,2991.397" style="stroke:#181818;stroke-width:1.563;" fill="none"/><polygon points="1387.329,538.419,1418.579,550.919,1387.329,563.419,1399.829,550.919" fill="#345B52" style="stroke:#345B52;stroke-width:3.125;stroke-linejoin:miter;stroke-miterlimit:10;"/><line x1="294.702" y1="550.919" x2="1406.079" y2="550.919" style="stroke:#345B52;stroke-width:3.125;"/><text x="316.577" y="528.775" fill="#000" font-size="75" textLength="687.964" font-family="Arial">Chọn complete_goal</text><polygon points="2458.203,668.411,2489.453,680.911,2458.203,693.411,2470.703,680.911" fill="#345B52" style="stroke:#345B52;stroke-width:3.125;stroke-linejoin:miter;stroke-miterlimit:10;"/><line x1="1424.829" y1="680.911" x2="2476.953" y2="680.911" style="stroke:#345B52;stroke-width:3.125;"/><text x="1446.704" y="658.768" fill="#000" font-size="75" textLength="917.395" font-family="Arial">Gửi yêu cầu complete_goal</text><line x1="2526.953" y1="897.147" x2="2658.203" y2="897.147" style="stroke:#345B52;stroke-width:3.125;"/><line x1="2658.203" y1="897.147" x2="2658.203" y2="937.772" style="stroke:#345B52;stroke-width:3.125;"/><line x1="2530.078" y1="937.772" x2="2658.203" y2="937.772" style="stroke:#345B52;stroke-width:3.125;"/><polygon points="2561.328,925.272,2530.078,937.772,2561.328,950.272,2548.828,937.772" fill="#345B52" style="stroke:#345B52;stroke-width:3.125;stroke-linejoin:miter;stroke-miterlimit:10;"/><text x="2548.828" y="788.76" fill="#000" font-size="75" textLength="975.439" font-family="Arial">Tính current_amount và kiểm</text><text x="2548.828" y="875.003" fill="#000" font-size="75" textLength="425.244" font-family="Arial">tra đạt target</text><polygon points="3533.765,1227.75,3565.015,1240.25,3533.765,1252.75,3546.265,1240.25" fill="#345B52" style="stroke:#345B52;stroke-width:3.125;stroke-linejoin:miter;stroke-miterlimit:10;"/><line x1="2526.953" y1="1240.25" x2="3552.515" y2="1240.25" style="stroke:#345B52;stroke-width:3.125;"/><text x="2548.828" y="1045.621" fill="#000" font-size="75" textLength="700.562" font-family="Arial">Theo mode - giữ, tạo</text><text x="2548.828" y="1131.863" fill="#000" font-size="75" textLength="625.342" font-family="Arial">withdraw, hoặc tạo</text><text x="2548.828" y="1218.106" fill="#000" font-size="75" textLength="508.557" font-family="Arial">Transaction chi</text><polygon points="2561.328,1357.742,2530.078,1370.242,2561.328,1382.742,2548.828,1370.242" fill="#345B52" style="stroke:#345B52;stroke-width:3.125;stroke-linejoin:miter;stroke-miterlimit:10;"/><line x1="2542.578" y1="1370.242" x2="3568.14" y2="1370.242" style="stroke:#345B52;stroke-width:3.125;stroke-dasharray:6.25,6.25;"/><text x="2580.078" y="1348.099" fill="#000" font-size="75" textLength="258.545" font-family="Arial">Kết quả</text><line x1="2526.953" y1="1500.235" x2="2658.203" y2="1500.235" style="stroke:#345B52;stroke-width:3.125;"/><line x1="2658.203" y1="1500.235" x2="2658.203" y2="1540.86" style="stroke:#345B52;stroke-width:3.125;"/><line x1="2530.078" y1="1540.86" x2="2658.203" y2="1540.86" style="stroke:#345B52;stroke-width:3.125;"/><polygon points="2561.328,1528.36,2530.078,1540.86,2561.328,1553.36,2548.828,1540.86" fill="#345B52" style="stroke:#345B52;stroke-width:3.125;stroke-linejoin:miter;stroke-miterlimit:10;"/><text x="2548.828" y="1478.091" fill="#000" font-size="75" textLength="1000.562" font-family="Arial">Ghi completion_amount/mode</text><polygon points="3533.765,1658.353,3565.015,1670.853,3533.765,1683.353,3546.265,1670.853" fill="#345B52" style="stroke:#345B52;stroke-width:3.125;stroke-linejoin:miter;stroke-miterlimit:10;"/><line x1="2526.953" y1="1670.853" x2="3552.515" y2="1670.853" style="stroke:#345B52;stroke-width:3.125;"/><text x="2548.828" y="1648.709" fill="#000" font-size="75" textLength="617.102" font-family="Arial">Commit nguyên tử</text><polygon points="2561.328,1788.345,2530.078,1800.845,2561.328,1813.345,2548.828,1800.845" fill="#345B52" style="stroke:#345B52;stroke-width:3.125;stroke-linejoin:miter;stroke-miterlimit:10;"/><line x1="2542.578" y1="1800.845" x2="3568.14" y2="1800.845" style="stroke:#345B52;stroke-width:3.125;stroke-dasharray:6.25,6.25;"/><text x="2580.078" y="1778.702" fill="#000" font-size="75" textLength="258.545" font-family="Arial">Kết quả</text><path d="M244.702,1838.345 L472.852,1838.345 L472.852,1899.588 L441.602,1930.838 L244.702,1930.838 L244.702,1838.345" style="stroke:#000;stroke-width:4.688;" fill="#EEE"/><rect x="244.702" y="1838.345" width="2316.626" height="960.559" fill="none" style="stroke:#000;stroke-width:4.688;"/><text x="291.577" y="1911.819" fill="#000" font-size="75" textLength="87.524" font-weight="700" font-family="Arial">alt</text><text x="519.727" y="1914.944" fill="#000" font-size="75" textLength="662.622" font-weight="700" font-family="Arial">[Xử lý thành công]</text><polygon points="1459.204,2266.434,1427.954,2278.934,1459.204,2291.434,1446.704,2278.934" fill="#345B52" style="stroke:#345B52;stroke-width:3.125;stroke-linejoin:miter;stroke-miterlimit:10;"/><line x1="1440.454" y1="2278.934" x2="2492.578" y2="2278.934" style="stroke:#345B52;stroke-width:3.125;stroke-dasharray:6.25,6.25;"/><text x="1477.954" y="2084.305" fill="#000" font-size="75" textLength="995.874" font-family="Arial">Goal completed; tiền được xử</text><text x="1477.954" y="2170.547" fill="#000" font-size="75" textLength="671.228" font-family="Arial">lý đúng mode; lỗi thì</text><text x="1477.954" y="2256.79" fill="#000" font-size="75" textLength="279.272" font-family="Arial">rollback.</text><polygon points="329.077,2396.426,297.827,2408.926,329.077,2421.426,316.577,2408.926" fill="#345B52" style="stroke:#345B52;stroke-width:3.125;stroke-linejoin:miter;stroke-miterlimit:10;"/><line x1="310.327" y1="2408.926" x2="1421.704" y2="2408.926" style="stroke:#345B52;stroke-width:3.125;stroke-dasharray:6.25,6.25;"/><text x="347.827" y="2386.783" fill="#000" font-size="75" textLength="521.155" font-family="Arial">Hiển thị kết quả</text><line x1="244.702" y1="2437.051" x2="2561.328" y2="2437.051" style="stroke:#000;stroke-width:3.125;stroke-dasharray:6.25,6.25;"/><text x="260.327" y="2513.651" fill="#000" font-size="75" textLength="1307.886" font-weight="700" font-family="Arial">[Dữ liệu không hợp lệ hoặc lỗi xử lý]</text><polygon points="1459.204,2631.412,1427.954,2643.912,1459.204,2656.412,1446.704,2643.912" fill="#345B52" style="stroke:#345B52;stroke-width:3.125;stroke-linejoin:miter;stroke-miterlimit:10;"/><line x1="1440.454" y1="2643.912" x2="2492.578" y2="2643.912" style="stroke:#345B52;stroke-width:3.125;stroke-dasharray:6.25,6.25;"/><text x="1477.954" y="2621.768" fill="#000" font-size="75" textLength="954.016" font-family="Arial">Mã lỗi và thông báo phù hợp</text><polygon points="329.077,2761.404,297.827,2773.904,329.077,2786.404,316.577,2773.904" fill="#345B52" style="stroke:#345B52;stroke-width:3.125;stroke-linejoin:miter;stroke-miterlimit:10;"/><line x1="310.327" y1="2773.904" x2="1421.704" y2="2773.904" style="stroke:#345B52;stroke-width:3.125;stroke-dasharray:6.25,6.25;"/><text x="347.827" y="2751.761" fill="#000" font-size="75" textLength="1055.127" font-family="Arial">Hiển thị lỗi, giữ dữ liệu cần thiết</text><?plantuml-src XLDDQnH14BtFhoWs5yL4Gpum7o0uksmCReAONV2m47fdEZFDpdHlUdgoIKJmuv2324O4JqB2ee8ac8CWpY0U9lW_sbzYzUnacImXNdROhgfNhrwzKam55EnLdRvimVbRdRw3PaiddzUXgTCp-FlyFJWYx0LKqKrFaC2AkeptY2GXT8ZJzQI8kLiLWP3GzvcYfRXBjqWSgBhWQfs45EvBTgc-5DzW-nHcvih17eFPwUdII-GJL_GPzs2B156vKKItOyeT2ayjm2vIz8U49cRdvktv6Nnii2tQO9pQGhfK5j6PnSNQtGMCFY9ICOVr25V_JnWRUg8-LxVh2zOpYpWA_rVMlJzdElt88DBfARWw_SIz2f08MX6LLiTK4ha7bRNiY8EVdN0VrZ390SMohp7-wkItWYxJwK4uh5kr79H8YW0gfZlbRflVU2nYHINSWggGz6QUM0GjboZI8H65IdMZriX3DTioxM7g7i8jGTNNwHi-jjZMgWaN84kmWlGPx1bEZaw-n6FPE2tR8OgEkXRVInZDx1J7Ss8fALUR9CJX5UnaH_buhy8sJaNW_50dnmeKaHvLPPYQZGW-5H0Aby8KU5ZqRH8KfeisxpFbkvBq9y4NEldXNBmt9U6HOITmG9zPDHkcofmUvlfknpePNCbvnMSNeo94GVgEeJ3EhIh2a2dWNemgSUoVdbxRZGGAdXXJ1DalK3xk7xN9ldCF7JQ2BZQqWXgF57UNZItI5norCkOQEB2BE6rkWCuFimHlmX1SXa2d7vZ1FcbpD4nWJlGsmflT6cJqm18yCE8ZNpJ1Q-YM258yAwYXo10O-yNGzGqzmCH1ps0VN6WzxBDR37C5_xLiK2IPTQiXJYSx5j3pivz3n6jvvSMJmvsRAnfnCcOqIVcTMBdVwRWP_m40?></g></svg>