<svg xmlns="http://www.w3.org/2000/svg" xmlns:xlink="http://www.w3.org/1999/xlink" version="1.1" data-diagram-type="SEQUENCE" style="width:3640px;height:3009px;background:#FFFFFF;" width="3640.625px" height="3009.375px" viewBox="0 0 3640 3009" zoomAndPan="magnify" preserveAspectRatio="none" contentStyleType="text/css"><?plantuml 1.2026.8?><defs/><g font-family="sans-serif" lengthAdjust="spacing"><g class="title" data-source-line="1"><text x="1468.381" y="87.912" fill="#000" font-size="43.75" textLength="699.915" font-weight="700" font-family="Arial">BIỂU ĐỒ TUẦN TỰ — delete_goal</text></g><rect x="244.702" y="1665.86" width="2274.768" height="960.559" fill="none" style="stroke:#000;stroke-width:4.688;"/><g><title>Ng..i s. d.ng</title><rect x="283.765" y="420.926" width="25" height="2280.493" fill="#000" fill-opacity="0"/><line x1="294.702" y1="420.926" x2="294.702" y2="2701.419" style="stroke:#299D78;stroke-width:1.563;stroke-dasharray:15.625,15.625;"/></g><g><title>M.n h.nh M.c ti.u ti.t ki.m</title><rect x="1413.892" y="420.926" width="25" height="2280.493" fill="#000" fill-opacity="0"/><line x1="1424.829" y1="420.926" x2="1424.829" y2="2701.419" style="stroke:#299D78;stroke-width:1.563;stroke-dasharray:15.625,15.625;"/></g><g><title>Backend</title><rect x="2458.533" y="420.926" width="25" height="2280.493" fill="#000" fill-opacity="0"/><line x1="2469.47" y1="420.926" x2="2469.47" y2="2701.419" style="stroke:#299D78;stroke-width:1.563;stroke-dasharray:15.625,15.625;"/></g><g><title></title><rect x="2453.845" y="680.911" width="31.25" height="1989.258" fill="#FFF" style="stroke:#181818;stroke-width:3.125;"/></g><g><title>CSDL</title><rect x="3488.208" y="420.926" width="25" height="2280.493" fill="#000" fill-opacity="0"/><line x1="3499.146" y1="420.926" x2="3499.146" y2="2701.419" style="stroke:#299D78;stroke-width:1.563;stroke-dasharray:15.625,15.625;"/></g><text x="31.25" y="405.032" fill="#000" font-size="75" textLength="508.154" font-family="Arial">Người sử dụng</text><ellipse cx="294.702" cy="173.746" rx="25" ry="25" fill="#E2E2F0" style="stroke:#181818;stroke-width:1.563;"/><path d="M294.702,198.746 L294.702,283.121 M254.077,223.746 L335.327,223.746 M294.702,283.121 L254.077,329.996 M294.702,283.121 L335.327,329.996" style="stroke:#181818;stroke-width:1.563;" fill="none"/><text x="956.921" y="405.032" fill="#000" font-size="75" textLength="917.065" font-family="Arial">Màn hình Mục tiêu tiết kiệm</text><path d="M1360.767,247.183 L1360.767,322.183 M1360.767,284.683 L1413.892,284.683" style="stroke:#181818;stroke-width:1.563;" fill="none"/><ellipse cx="1451.392" cy="284.683" rx="37.5" ry="37.5" fill="#E2E2F0" style="stroke:#181818;stroke-width:1.563;"/><text x="2314.16" y="318.79" fill="#000" font-size="75" textLength="291.87" font-family="Arial">Backend</text><text x="2198.547" y="405.032" fill="#000" font-size="75" textLength="523.096" font-family="Arial">(Router + Core)</text><ellipse cx="2469.47" cy="198.441" rx="37.5" ry="37.5" fill="#E2E2F0" style="stroke:#181818;stroke-width:1.563;"/><polygon points="2456.97,160.941,2475.72,145.316,2469.47,160.941,2475.72,176.566,2456.97,160.941" fill="#181818" style="stroke:#181818;stroke-width:3.125;stroke-linejoin:miter;stroke-miterlimit:10;"/><text x="3389.74" y="405.032" fill="#000" font-size="75" textLength="200.061" font-family="Arial">CSDL</text><path d="M3442.896,222.183 C3442.896,190.933 3499.146,190.933 3499.146,190.933 C3499.146,190.933 3555.396,190.933 3555.396,222.183 L3555.396,303.433 C3555.396,334.683 3499.146,334.683 3499.146,334.683 C3499.146,334.683 3442.896,334.683 3442.896,303.433 L3442.896,222.183" style="stroke:#181818;stroke-width:1.563;" fill="#E2E2F0"/><path d="M3442.896,222.183 C3442.896,253.433 3499.146,253.433 3499.146,253.433 C3499.146,253.433 3555.396,253.433 3555.396,222.183" style="stroke:#181818;stroke-width:1.563;" fill="none"/><text x="31.25" y="2771.768" fill="#000" font-size="75" textLength="508.154" font-family="Arial">Người sử dụng</text><ellipse cx="294.702" cy="2814.224" rx="25" ry="25" fill="#E2E2F0" style="stroke:#181818;stroke-width:1.563;"/><path d="M294.702,2839.224 L294.702,2923.599 M254.077,2864.224 L335.327,2864.224 M294.702,2923.599 L254.077,2970.474 M294.702,2923.599 L335.327,2970.474" style="stroke:#181818;stroke-width:1.563;" fill="none"/><text x="956.921" y="2771.768" fill="#000" font-size="75" textLength="917.065" font-family="Arial">Màn hình Mục tiêu tiết kiệm</text><path d="M1360.767,2800.162 L1360.767,2875.162 M1360.767,2837.662 L1413.892,2837.662" style="stroke:#181818;stroke-width:1.563;" fill="none"/><ellipse cx="1451.392" cy="2837.662" rx="37.5" ry="37.5" fill="#E2E2F0" style="stroke:#181818;stroke-width:1.563;"/><text x="2314.16" y="2771.768" fill="#000" font-size="75" textLength="291.87" font-family="Arial">Backend</text><text x="2198.547" y="2858.011" fill="#000" font-size="75" textLength="523.096" font-family="Arial">(Router + Core)</text><ellipse cx="2469.47" cy="2923.904" rx="37.5" ry="37.5" fill="#E2E2F0" style="stroke:#181818;stroke-width:1.563;"/><polygon points="2456.97,2886.404,2475.72,2870.779,2469.47,2886.404,2475.72,2902.029,2456.97,2886.404" fill="#181818" style="stroke:#181818;stroke-width:3.125;stroke-linejoin:miter;stroke-miterlimit:10;"/><text x="3389.74" y="2771.768" fill="#000" font-size="75" textLength="200.061" font-family="Arial">CSDL</text><path d="M3442.896,2818.912 C3442.896,2787.662 3499.146,2787.662 3499.146,2787.662 C3499.146,2787.662 3555.396,2787.662 3555.396,2818.912 L3555.396,2900.162 C3555.396,2931.412 3499.146,2931.412 3499.146,2931.412 C3499.146,2931.412 3442.896,2931.412 3442.896,2900.162 L3442.896,2818.912" style="stroke:#181818;stroke-width:1.563;" fill="#E2E2F0"/><path d="M3442.896,2818.912 C3442.896,2850.162 3499.146,2850.162 3499.146,2850.162 C3499.146,2850.162 3555.396,2850.162 3555.396,2818.912" style="stroke:#181818;stroke-width:1.563;" fill="none"/><polygon points="1387.329,538.419,1418.579,550.919,1387.329,563.419,1399.829,550.919" fill="#345B52" style="stroke:#345B52;stroke-width:3.125;stroke-linejoin:miter;stroke-miterlimit:10;"/><line x1="294.702" y1="550.919" x2="1406.079" y2="550.919" style="stroke:#345B52;stroke-width:3.125;"/><text x="316.577" y="528.775" fill="#000" font-size="75" textLength="587.988" font-family="Arial">Chọn delete_goal</text><polygon points="2416.345,668.411,2447.595,680.911,2416.345,693.411,2428.845,680.911" fill="#345B52" style="stroke:#345B52;stroke-width:3.125;stroke-linejoin:miter;stroke-miterlimit:10;"/><line x1="1424.829" y1="680.911" x2="2435.095" y2="680.911" style="stroke:#345B52;stroke-width:3.125;"/><text x="1446.704" y="658.768" fill="#000" font-size="75" textLength="817.419" font-family="Arial">Gửi yêu cầu delete_goal</text><line x1="2485.095" y1="810.904" x2="2616.345" y2="810.904" style="stroke:#345B52;stroke-width:3.125;"/><line x1="2616.345" y1="810.904" x2="2616.345" y2="851.529" style="stroke:#345B52;stroke-width:3.125;"/><line x1="2488.22" y1="851.529" x2="2616.345" y2="851.529" style="stroke:#345B52;stroke-width:3.125;"/><polygon points="2519.47,839.029,2488.22,851.529,2519.47,864.029,2506.97,851.529" fill="#345B52" style="stroke:#345B52;stroke-width:3.125;stroke-linejoin:miter;stroke-miterlimit:10;"/><text x="2506.97" y="788.76" fill="#000" font-size="75" textLength="504.419" font-family="Arial">Kiểm tra quyền</text><polygon points="3461.646,969.022,3492.896,981.522,3461.646,994.022,3474.146,981.522" fill="#345B52" style="stroke:#345B52;stroke-width:3.125;stroke-linejoin:miter;stroke-miterlimit:10;"/><line x1="2485.095" y1="981.522" x2="3480.396" y2="981.522" style="stroke:#345B52;stroke-width:3.125;"/><text x="2506.97" y="959.378" fill="#000" font-size="75" textLength="729.456" font-family="Arial">Đếm GoalTransaction</text><polygon points="2519.47,1099.014,2488.22,1111.514,2519.47,1124.014,2506.97,1111.514" fill="#345B52" style="stroke:#345B52;stroke-width:3.125;stroke-linejoin:miter;stroke-miterlimit:10;"/><line x1="2500.72" y1="1111.514" x2="3496.021" y2="1111.514" style="stroke:#345B52;stroke-width:3.125;stroke-dasharray:6.25,6.25;"/><text x="2538.22" y="1089.371" fill="#000" font-size="75" textLength="258.545" font-family="Arial">Kết quả</text><line x1="2485.095" y1="1241.507" x2="2616.345" y2="1241.507" style="stroke:#345B52;stroke-width:3.125;"/><line x1="2616.345" y1="1241.507" x2="2616.345" y2="1282.132" style="stroke:#345B52;stroke-width:3.125;"/><line x1="2488.22" y1="1282.132" x2="2616.345" y2="1282.132" style="stroke:#345B52;stroke-width:3.125;"/><polygon points="2519.47,1269.632,2488.22,1282.132,2519.47,1294.632,2506.97,1282.132" fill="#345B52" style="stroke:#345B52;stroke-width:3.125;stroke-linejoin:miter;stroke-miterlimit:10;"/><text x="2506.97" y="1219.363" fill="#000" font-size="75" textLength="625.488" font-family="Arial">Có lịch sử thì chặn</text><polygon points="3461.646,1485.867,3492.896,1498.367,3461.646,1510.867,3474.146,1498.367" fill="#345B52" style="stroke:#345B52;stroke-width:3.125;stroke-linejoin:miter;stroke-miterlimit:10;"/><line x1="2485.095" y1="1498.367" x2="3480.396" y2="1498.367" style="stroke:#345B52;stroke-width:3.125;"/><text x="2506.97" y="1389.981" fill="#000" font-size="75" textLength="954.675" font-family="Arial">Nếu không, xóa GoalItem rồi</text><text x="2506.97" y="1476.224" fill="#000" font-size="75" textLength="750.293" font-family="Arial">SavingGoal và commit</text><polygon points="2519.47,1615.86,2488.22,1628.36,2519.47,1640.86,2506.97,1628.36" fill="#345B52" style="stroke:#345B52;stroke-width:3.125;stroke-linejoin:miter;stroke-miterlimit:10;"/><line x1="2500.72" y1="1628.36" x2="3496.021" y2="1628.36" style="stroke:#345B52;stroke-width:3.125;stroke-dasharray:6.25,6.25;"/><text x="2538.22" y="1606.216" fill="#000" font-size="75" textLength="258.545" font-family="Arial">Kết quả</text><path d="M244.702,1665.86 L472.852,1665.86 L472.852,1727.103 L441.602,1758.353 L244.702,1758.353 L244.702,1665.86" style="stroke:#000;stroke-width:4.688;" fill="#EEE"/><rect x="244.702" y="1665.86" width="2274.768" height="960.559" fill="none" style="stroke:#000;stroke-width:4.688;"/><text x="291.577" y="1739.334" fill="#000" font-size="75" textLength="87.524" font-weight="700" font-family="Arial">alt</text><text x="519.727" y="1742.459" fill="#000" font-size="75" textLength="662.622" font-weight="700" font-family="Arial">[Xử lý thành công]</text><polygon points="1459.204,2093.948,1427.954,2106.448,1459.204,2118.948,1446.704,2106.448" fill="#345B52" style="stroke:#345B52;stroke-width:3.125;stroke-linejoin:miter;stroke-miterlimit:10;"/><line x1="1440.454" y1="2106.448" x2="2450.72" y2="2106.448" style="stroke:#345B52;stroke-width:3.125;stroke-dasharray:6.25,6.25;"/><text x="1477.954" y="1911.819" fill="#000" font-size="75" textLength="883.813" font-family="Arial">Thành công - goal/items bị</text><text x="1477.954" y="1998.062" fill="#000" font-size="75" textLength="863.232" font-family="Arial">xóa. Thất bại - toàn bộ dữ</text><text x="1477.954" y="2084.305" fill="#000" font-size="75" textLength="533.899" font-family="Arial">liệu giữ nguyên.</text><polygon points="329.077,2223.941,297.827,2236.441,329.077,2248.941,316.577,2236.441" fill="#345B52" style="stroke:#345B52;stroke-width:3.125;stroke-linejoin:miter;stroke-miterlimit:10;"/><line x1="310.327" y1="2236.441" x2="1421.704" y2="2236.441" style="stroke:#345B52;stroke-width:3.125;stroke-dasharray:6.25,6.25;"/><text x="347.827" y="2214.297" fill="#000" font-size="75" textLength="521.155" font-family="Arial">Hiển thị kết quả</text><line x1="244.702" y1="2264.566" x2="2519.47" y2="2264.566" style="stroke:#000;stroke-width:3.125;stroke-dasharray:6.25,6.25;"/><text x="260.327" y="2341.165" fill="#000" font-size="75" textLength="1307.886" font-weight="700" font-family="Arial">[Dữ liệu không hợp lệ hoặc lỗi xử lý]</text><polygon points="1459.204,2458.926,1427.954,2471.426,1459.204,2483.926,1446.704,2471.426" fill="#345B52" style="stroke:#345B52;stroke-width:3.125;stroke-linejoin:miter;stroke-miterlimit:10;"/><line x1="1440.454" y1="2471.426" x2="2450.72" y2="2471.426" style="stroke:#345B52;stroke-width:3.125;stroke-dasharray:6.25,6.25;"/><text x="1477.954" y="2449.283" fill="#000" font-size="75" textLength="954.016" font-family="Arial">Mã lỗi và thông báo phù hợp</text><polygon points="329.077,2588.919,297.827,2601.419,329.077,2613.919,316.577,2601.419" fill="#345B52" style="stroke:#345B52;stroke-width:3.125;stroke-linejoin:miter;stroke-miterlimit:10;"/><line x1="310.327" y1="2601.419" x2="1421.704" y2="2601.419" style="stroke:#345B52;stroke-width:3.125;stroke-dasharray:6.25,6.25;"/><text x="347.827" y="2579.276" fill="#000" font-size="75" textLength="1055.127" font-family="Arial">Hiển thị lỗi, giữ dữ liệu cần thiết</text><?plantuml-src XLDBQnH14BxFhoWs5yKaXZmmsOFWxB9nCLd4x8A71UcTwSmqEzEzwUd9Gn5y778GGLGG3yA69GgY9111d45o6F5_jB_4wjaXpCOGB_Fe-khxghwgLam55EocJfzruDShdRw6TaSd7rlGrkan_7do5bmQK4KVU884LjHdV40a2Q57dBudHSpTcWY4X1sVALgAktIJn85g2AvQ9AHmIxA9_59yWpsaCBzO3WuOBCpDbKuYdxXYXt4FDaaGbOKYkXLJxb1uP06gIB4pBcXgON79Nfh7mpMsITSOfxQGBfL5T7vbfNvZ6QDtYLJCOGF2rVy1vvgUQYmsxCQozTWYZiB_IilxVQpJ3mmYdNu5LwU7tAi0YQ0JKMdrJ2QHUr1PpuOS_EmBzs4TGGuebdsEyQcJKmLzfjFzS9pNj1oqI8e0AaQTShVBhzmJiQ8Iha5DI7er1nP1ooMAz4X4eLBRgA_beRfj6NcOkObqLQZvEdt99yRQQPfWGL65LIoUmPwfoD79ftW2YvsoRQBecMBndc2uWnqy3q590blndawVyZAiRbVDhYMd8QmYPLiI7XbQmQsw3JCJHBaXMx5EHXSArR8J27Jwml77bYiq5HnV9z__KMmXLGnzF_l6lMdOpKv8hjvKD0IfqpUiopV8DgwOEONjR0YE24EcBgs910hk6-4W-sd4XpXHnoZWufpf5yQtIs6O0UFcTRmqOGGzxA3BJKcpYDB9eSAZv80XIWcpAWXuRzRfgCi3inmnUFWw0kx5E2O-YsfcXaO89rs5syP_ZWKXCVHBzLAyF50tgGNFs0z0u6XWdDm7Nw1xZlb-ns2twEs2TjQpKG4oNganJoyx433minzZnalhofEdYqxSKarcwGmelmrMljNq_Dhz1G00?></g></svg>