<svg xmlns="http://www.w3.org/2000/svg" xmlns:xlink="http://www.w3.org/1999/xlink" version="1.1" data-diagram-type="SEQUENCE" style="width:3600px;height:2921px;background:#FFFFFF;" width="3600px" height="2921.875px" viewBox="0 0 3600 2921" zoomAndPan="magnify" preserveAspectRatio="none" contentStyleType="text/css"><?plantuml 1.2026.8?><defs/><g font-family="sans-serif" lengthAdjust="spacing"><g class="title" data-source-line="1"><text x="1409.19" y="87.912" fill="#000" font-size="43.75" textLength="777.695" font-weight="700" font-family="Arial">BIỂU ĐỒ TUẦN TỰ — get_goal_detail</text></g><rect x="244.702" y="1665.86" width="2274.841" height="874.316" fill="none" style="stroke:#000;stroke-width:4.688;"/><g><title>Ng..i s. d.ng</title><rect x="283.765" y="420.926" width="25" height="2194.25" fill="#000" fill-opacity="0"/><line x1="294.702" y1="420.926" x2="294.702" y2="2615.176" style="stroke:#299D78;stroke-width:1.563;stroke-dasharray:15.625,15.625;"/></g><g><title>M.n h.nh M.c ti.u ti.t ki.m</title><rect x="1413.892" y="420.926" width="25" height="2194.25" fill="#000" fill-opacity="0"/><line x1="1424.829" y1="420.926" x2="1424.829" y2="2615.176" style="stroke:#299D78;stroke-width:1.563;stroke-dasharray:15.625,15.625;"/></g><g><title>Backend</title><rect x="2458.606" y="420.926" width="25" height="2194.25" fill="#000" fill-opacity="0"/><line x1="2469.543" y1="420.926" x2="2469.543" y2="2615.176" style="stroke:#299D78;stroke-width:1.563;stroke-dasharray:15.625,15.625;"/></g><g><title></title><rect x="2453.918" y="680.911" width="31.25" height="1903.015" fill="#FFF" style="stroke:#181818;stroke-width:3.125;"/></g><g><title>CSDL</title><rect x="3447.607" y="420.926" width="25" height="2194.25" fill="#000" fill-opacity="0"/><line x1="3458.545" y1="420.926" x2="3458.545" y2="2615.176" style="stroke:#299D78;stroke-width:1.563;stroke-dasharray:15.625,15.625;"/></g><text x="31.25" y="405.032" fill="#000" font-size="75" textLength="508.154" font-family="Arial">Người sử dụng</text><ellipse cx="294.702" cy="173.746" rx="25" ry="25" fill="#E2E2F0" style="stroke:#181818;stroke-width:1.563;"/><path d="M294.702,198.746 L294.702,283.121 M254.077,223.746 L335.327,223.746 M294.702,283.121 L254.077,329.996 M294.702,283.121 L335.327,329.996" style="stroke:#181818;stroke-width:1.563;" fill="none"/><text x="956.921" y="405.032" fill="#000" font-size="75" textLength="917.065" font-family="Arial">Màn hình Mục tiêu tiết kiệm</text><path d="M1360.767,247.183 L1360.767,322.183 M1360.767,284.683 L1413.892,284.683" style="stroke:#181818;stroke-width:1.563;" fill="none"/><ellipse cx="1451.392" cy="284.683" rx="37.5" ry="37.5" fill="#E2E2F0" style="stroke:#181818;stroke-width:1.563;"/><text x="2314.233" y="318.79" fill="#000" font-size="75" textLength="291.87" font-family="Arial">Backend</text><text x="2198.621" y="405.032" fill="#000" font-size="75" textLength="523.096" font-family="Arial">(Router + Core)</text><ellipse cx="2469.543" cy="198.441" rx="37.5" ry="37.5" fill="#E2E2F0" style="stroke:#181818;stroke-width:1.563;"/><polygon points="2457.043,160.941,2475.793,145.316,2469.543,160.941,2475.793,176.566,2457.043,160.941" fill="#181818" style="stroke:#181818;stroke-width:3.125;stroke-linejoin:miter;stroke-miterlimit:10;"/><text x="3349.139" y="405.032" fill="#000" font-size="75" textLength="200.061" font-family="Arial">CSDL</text><path d="M3402.295,222.183 C3402.295,190.933 3458.545,190.933 3458.545,190.933 C3458.545,190.933 3514.795,190.933 3514.795,222.183 L3514.795,303.433 C3514.795,334.683 3458.545,334.683 3458.545,334.683 C3458.545,334.683 3402.295,334.683 3402.295,303.433 L3402.295,222.183" style="stroke:#181818;stroke-width:1.563;" fill="#E2E2F0"/><path d="M3402.295,222.183 C3402.295,253.433 3458.545,253.433 3458.545,253.433 C3458.545,253.433 3514.795,253.433 3514.795,222.183" style="stroke:#181818;stroke-width:1.563;" fill="none"/><text x="31.25" y="2685.526" fill="#000" font-size="75" textLength="508.154" font-family="Arial">Người sử dụng</text><ellipse cx="294.702" cy="2727.982" rx="25" ry="25" fill="#E2E2F0" style="stroke:#181818;stroke-width:1.563;"/><path d="M294.702,2752.982 L294.702,2837.357 M254.077,2777.982 L335.327,2777.982 M294.702,2837.357 L254.077,2884.232 M294.702,2837.357 L335.327,2884.232" style="stroke:#181818;stroke-width:1.563;" fill="none"/><text x="956.921" y="2685.526" fill="#000" font-size="75" textLength="917.065" font-family="Arial">Màn hình Mục tiêu tiết kiệm</text><path d="M1360.767,2713.919 L1360.767,2788.919 M1360.767,2751.419 L1413.892,2751.419" style="stroke:#181818;stroke-width:1.563;" fill="none"/><ellipse cx="1451.392" cy="2751.419" rx="37.5" ry="37.5" fill="#E2E2F0" style="stroke:#181818;stroke-width:1.563;"/><text x="2314.233" y="2685.526" fill="#000" font-size="75" textLength="291.87" font-family="Arial">Backend</text><text x="2198.621" y="2771.768" fill="#000" font-size="75" textLength="523.096" font-family="Arial">(Router + Core)</text><ellipse cx="2469.543" cy="2837.662" rx="37.5" ry="37.5" fill="#E2E2F0" style="stroke:#181818;stroke-width:1.563;"/><polygon points="2457.043,2800.162,2475.793,2784.537,2469.543,2800.162,2475.793,2815.787,2457.043,2800.162" fill="#181818" style="stroke:#181818;stroke-width:3.125;stroke-linejoin:miter;stroke-miterlimit:10;"/><text x="3349.139" y="2685.526" fill="#000" font-size="75" textLength="200.061" font-family="Arial">CSDL</text><path d="M3402.295,2732.669 C3402.295,2701.419 3458.545,2701.419 3458.545,2701.419 C3458.545,2701.419 3514.795,2701.419 3514.795,2732.669 L3514.795,2813.919 C3514.795,2845.169 3458.545,2845.169 3458.545,2845.169 C3458.545,2845.169 3402.295,2845.169 3402.295,2813.919 L3402.295,2732.669" style="stroke:#181818;stroke-width:1.563;" fill="#E2E2F0"/><path d="M3402.295,2732.669 C3402.295,2763.919 3458.545,2763.919 3458.545,2763.919 C3458.545,2763.919 3514.795,2763.919 3514.795,2732.669" style="stroke:#181818;stroke-width:1.563;" fill="none"/><polygon points="1387.329,538.419,1418.579,550.919,1387.329,563.419,1399.829,550.919" fill="#345B52" style="stroke:#345B52;stroke-width:3.125;stroke-linejoin:miter;stroke-miterlimit:10;"/><line x1="294.702" y1="550.919" x2="1406.079" y2="550.919" style="stroke:#345B52;stroke-width:3.125;"/><text x="316.577" y="528.775" fill="#000" font-size="75" textLength="708.911" font-family="Arial">Chọn get_goal_detail</text><polygon points="2416.418,668.411,2447.668,680.911,2416.418,693.411,2428.918,680.911" fill="#345B52" style="stroke:#345B52;stroke-width:3.125;stroke-linejoin:miter;stroke-miterlimit:10;"/><line x1="1424.829" y1="680.911" x2="2435.168" y2="680.911" style="stroke:#345B52;stroke-width:3.125;"/><text x="1446.704" y="658.768" fill="#000" font-size="75" textLength="938.342" font-family="Arial">Gửi yêu cầu get_goal_detail</text><polygon points="3421.045,798.404,3452.295,810.904,3421.045,823.404,3433.545,810.904" fill="#345B52" style="stroke:#345B52;stroke-width:3.125;stroke-linejoin:miter;stroke-miterlimit:10;"/><line x1="2485.168" y1="810.904" x2="3439.795" y2="810.904" style="stroke:#345B52;stroke-width:3.125;"/><text x="2507.043" y="788.76" fill="#000" font-size="75" textLength="827.563" font-family="Arial">Tìm goal theo id+user_id</text><polygon points="2519.543,928.397,2488.293,940.897,2519.543,953.397,2507.043,940.897" fill="#345B52" style="stroke:#345B52;stroke-width:3.125;stroke-linejoin:miter;stroke-miterlimit:10;"/><line x1="2500.793" y1="940.897" x2="3455.42" y2="940.897" style="stroke:#345B52;stroke-width:3.125;stroke-dasharray:6.25,6.25;"/><text x="2538.293" y="918.753" fill="#000" font-size="75" textLength="258.545" font-family="Arial">Kết quả</text><polygon points="3421.045,1058.389,3452.295,1070.889,3421.045,1083.389,3433.545,1070.889" fill="#345B52" style="stroke:#345B52;stroke-width:3.125;stroke-linejoin:miter;stroke-miterlimit:10;"/><line x1="2485.168" y1="1070.889" x2="3439.795" y2="1070.889" style="stroke:#345B52;stroke-width:3.125;"/><text x="2507.043" y="1048.746" fill="#000" font-size="75" textLength="320.947" font-family="Arial">Lấy items</text><polygon points="2519.543,1188.382,2488.293,1200.882,2519.543,1213.382,2507.043,1200.882" fill="#345B52" style="stroke:#345B52;stroke-width:3.125;stroke-linejoin:miter;stroke-miterlimit:10;"/><line x1="2500.793" y1="1200.882" x2="3455.42" y2="1200.882" style="stroke:#345B52;stroke-width:3.125;stroke-dasharray:6.25,6.25;"/><text x="2538.293" y="1178.738" fill="#000" font-size="75" textLength="258.545" font-family="Arial">Kết quả</text><line x1="2485.168" y1="1417.117" x2="2616.418" y2="1417.117" style="stroke:#345B52;stroke-width:3.125;"/><line x1="2616.418" y1="1417.117" x2="2616.418" y2="1457.742" style="stroke:#345B52;stroke-width:3.125;"/><line x1="2488.293" y1="1457.742" x2="2616.418" y2="1457.742" style="stroke:#345B52;stroke-width:3.125;"/><polygon points="2519.543,1445.242,2488.293,1457.742,2519.543,1470.242,2507.043,1457.742" fill="#345B52" style="stroke:#345B52;stroke-width:3.125;stroke-linejoin:miter;stroke-miterlimit:10;"/><text x="2507.043" y="1308.731" fill="#000" font-size="75" textLength="929.626" font-family="Arial">Tính current_amount và lịch</text><text x="2507.043" y="1394.974" fill="#000" font-size="75" textLength="412.976" font-family="Arial">sử liên quan</text><line x1="2485.168" y1="1587.735" x2="2616.418" y2="1587.735" style="stroke:#345B52;stroke-width:3.125;"/><line x1="2616.418" y1="1587.735" x2="2616.418" y2="1628.36" style="stroke:#345B52;stroke-width:3.125;"/><line x1="2488.293" y1="1628.36" x2="2616.418" y2="1628.36" style="stroke:#345B52;stroke-width:3.125;"/><polygon points="2519.543,1615.86,2488.293,1628.36,2519.543,1640.86,2507.043,1628.36" fill="#345B52" style="stroke:#345B52;stroke-width:3.125;stroke-linejoin:miter;stroke-miterlimit:10;"/><text x="2507.043" y="1565.591" fill="#000" font-size="75" textLength="350.098" font-family="Arial">Trả chi tiết</text><path d="M244.702,1665.86 L472.852,1665.86 L472.852,1727.103 L441.602,1758.353 L244.702,1758.353 L244.702,1665.86" style="stroke:#000;stroke-width:4.688;" fill="#EEE"/><rect x="244.702" y="1665.86" width="2274.841" height="874.316" fill="none" style="stroke:#000;stroke-width:4.688;"/><text x="291.577" y="1739.334" fill="#000" font-size="75" textLength="87.524" font-weight="700" font-family="Arial">alt</text><text x="519.727" y="1742.459" fill="#000" font-size="75" textLength="662.622" font-weight="700" font-family="Arial">[Xử lý thành công]</text><polygon points="1459.204,2007.706,1427.954,2020.206,1459.204,2032.706,1446.704,2020.206" fill="#345B52" style="stroke:#345B52;stroke-width:3.125;stroke-linejoin:miter;stroke-miterlimit:10;"/><line x1="1440.454" y1="2020.206" x2="2450.793" y2="2020.206" style="stroke:#345B52;stroke-width:3.125;stroke-dasharray:6.25,6.25;"/><text x="1477.954" y="1911.819" fill="#000" font-size="75" textLength="954.089" font-family="Arial">Chi tiết đúng quyền được trả</text><text x="1477.954" y="1998.062" fill="#000" font-size="75" textLength="329.443" font-family="Arial">hoặc 404.</text><polygon points="329.077,2137.698,297.827,2150.198,329.077,2162.698,316.577,2150.198" fill="#345B52" style="stroke:#345B52;stroke-width:3.125;stroke-linejoin:miter;stroke-miterlimit:10;"/><line x1="310.327" y1="2150.198" x2="1421.704" y2="2150.198" style="stroke:#345B52;stroke-width:3.125;stroke-dasharray:6.25,6.25;"/><text x="347.827" y="2128.055" fill="#000" font-size="75" textLength="521.155" font-family="Arial">Hiển thị kết quả</text><line x1="244.702" y1="2178.323" x2="2519.543" y2="2178.323" style="stroke:#000;stroke-width:3.125;stroke-dasharray:6.25,6.25;"/><text x="260.327" y="2254.922" fill="#000" font-size="75" textLength="1307.886" font-weight="700" font-family="Arial">[Dữ liệu không hợp lệ hoặc lỗi xử lý]</text><polygon points="1459.204,2372.684,1427.954,2385.184,1459.204,2397.684,1446.704,2385.184" fill="#345B52" style="stroke:#345B52;stroke-width:3.125;stroke-linejoin:miter;stroke-miterlimit:10;"/><line x1="1440.454" y1="2385.184" x2="2450.793" y2="2385.184" style="stroke:#345B52;stroke-width:3.125;stroke-dasharray:6.25,6.25;"/><text x="1477.954" y="2363.04" fill="#000" font-size="75" textLength="954.016" font-family="Arial">Mã lỗi và thông báo phù hợp</text><polygon points="329.077,2502.676,297.827,2515.176,329.077,2527.676,316.577,2515.176" fill="#345B52" style="stroke:#345B52;stroke-width:3.125;stroke-linejoin:miter;stroke-miterlimit:10;"/><line x1="310.327" y1="2515.176" x2="1421.704" y2="2515.176" style="stroke:#345B52;stroke-width:3.125;stroke-dasharray:6.25,6.25;"/><text x="347.827" y="2493.033" fill="#000" font-size="75" textLength="1055.127" font-family="Arial">Hiển thị lỗi, giữ dữ liệu cần thiết</text><?plantuml-src ZLFFQnD15BxlN_58BqgjX3R5DWV1JOW6qo0s0G-5CDcTx0xPp2IpiwrH17ySUX11HV0aL48LfCKU174NyR35_sFyItopMSFI5lMokpFlUz_xtdlVAgO22dPJ9q-xSFfI9w-XqzNnXpPqT782lnw_0O-gdYT8q7Ef8YommY7ZOoB92Fh46NfIHDojYK18sFEPeeMuImSa2bH3SDKc8met92F1nV5jze32QgKO73DOAvSBDw5FNB77k0S34eJ5GY6TH9Gx51vQW5Mas9iBMbghhDlhgtZPOWFQOfpQGhfKvj7LpStwjGsCtY5ICOUD2LV_1fnfUgbHQTYD3UkHHHo5vrBR-tcYatSCGfqSWwkJG-wLW8JG3Qcq-YQJo2cKjj833dvwn7tOGf03YgMV8dpg-8U28TF9_cYUrxGS794K0PHCTShT7NxfheWKbR0CDI7fvGoO1osNAD8d8OLIRRlUoa9rspBbOUKwqbMXvkla1J-tscxJ07AQAjp41XXCZIf7nn-ZStZicEqIHHULyxTXgTjLwAH78p09e7mgWBdB4OheCTUgsx1IB7KxQteIwNXsbgIbuyCfeBD6uV-cBUATz1Z7wqHIKgvwP8J3Lx2R7a2Wa-UElyEp7GKuU8uiX5zC8f4U79_bkx58eE1UbfX-nyvmZrWZ_S8zTCg2O37fFsbm-YgDqRoJQAgJ9noFnYSptBlXt-6-qF5N1ohbobNaCQim53YlAjn2CppZM0fLmx3GCyN_0Eew-Omze5yY6Ff61o1mDZPDxaDEYzzl6TpFLLyWT2kTvI0p7pNdwQVl1OpzzDkSyQ-wikGhu34ZnoreCjuneFdmCeFIiyxv3G00?></g></svg>