<svg xmlns="http://www.w3.org/2000/svg" xmlns:xlink="http://www.w3.org/1999/xlink" version="1.1" data-diagram-type="SEQUENCE" style="width:3675px;height:2743px;background:#FFFFFF;" width="3675px" height="2743.75px" viewBox="0 0 3675 2743" zoomAndPan="magnify" preserveAspectRatio="none" contentStyleType="text/css"><?plantuml 1.2026.8?><defs/><g font-family="sans-serif" lengthAdjust="spacing"><g class="title" data-source-line="1"><text x="1466.156" y="87.912" fill="#000" font-size="43.75" textLength="738.837" font-weight="700" font-family="Arial">BIỂU ĐỒ TUẦN TỰ — message_out</text></g><rect x="244.702" y="1400.882" width="2274.768" height="960.559" fill="none" style="stroke:#000;stroke-width:4.688;"/><g><title>Ng..i s. d.ng</title><rect x="283.765" y="420.926" width="25" height="2015.515" fill="#000" fill-opacity="0"/><line x1="294.702" y1="420.926" x2="294.702" y2="2436.441" style="stroke:#299D78;stroke-width:1.563;stroke-dasharray:15.625,15.625;"/></g><g><title>M.n h.nh Tr. l. AI</title><rect x="1413.892" y="420.926" width="25" height="2015.515" fill="#000" fill-opacity="0"/><line x1="1424.829" y1="420.926" x2="1424.829" y2="2436.441" style="stroke:#299D78;stroke-width:1.563;stroke-dasharray:15.625,15.625;"/></g><g><title>Backend</title><rect x="2458.533" y="420.926" width="25" height="2015.515" fill="#000" fill-opacity="0"/><line x1="2469.47" y1="420.926" x2="2469.47" y2="2436.441" style="stroke:#299D78;stroke-width:1.563;stroke-dasharray:15.625,15.625;"/></g><g><title></title><rect x="2453.845" y="680.911" width="31.25" height="1724.28" fill="#FFF" style="stroke:#181818;stroke-width:3.125;"/></g><g><title>CSDL</title><rect x="3522.681" y="420.926" width="25" height="2015.515" fill="#000" fill-opacity="0"/><line x1="3533.618" y1="420.926" x2="3533.618" y2="2436.441" style="stroke:#299D78;stroke-width:1.563;stroke-dasharray:15.625,15.625;"/></g><text x="31.25" y="405.032" fill="#000" font-size="75" textLength="508.154" font-family="Arial">Người sử dụng</text><ellipse cx="294.702" cy="173.746" rx="25" ry="25" fill="#E2E2F0" style="stroke:#181818;stroke-width:1.563;"/><path d="M294.702,198.746 L294.702,283.121 M254.077,223.746 L335.327,223.746 M294.702,283.121 L254.077,329.996 M294.702,283.121 L335.327,329.996" style="stroke:#181818;stroke-width:1.563;" fill="none"/><text x="1105.347" y="405.032" fill="#000" font-size="75" textLength="620.215" font-family="Arial">Màn hình Trợ lý AI</text><path d="M1360.767,247.183 L1360.767,322.183 M1360.767,284.683 L1413.892,284.683" style="stroke:#181818;stroke-width:1.563;" fill="none"/><ellipse cx="1451.392" cy="284.683" rx="37.5" ry="37.5" fill="#E2E2F0" style="stroke:#181818;stroke-width:1.563;"/><text x="2314.16" y="318.79" fill="#000" font-size="75" textLength="291.87" font-family="Arial">Backend</text><text x="2198.547" y="405.032" fill="#000" font-size="75" textLength="523.096" font-family="Arial">(Router + Core)</text><ellipse cx="2469.47" cy="198.441" rx="37.5" ry="37.5" fill="#E2E2F0" style="stroke:#181818;stroke-width:1.563;"/><polygon points="2456.97,160.941,2475.72,145.316,2469.47,160.941,2475.72,176.566,2456.97,160.941" fill="#181818" style="stroke:#181818;stroke-width:3.125;stroke-linejoin:miter;stroke-miterlimit:10;"/><text x="3424.213" y="405.032" fill="#000" font-size="75" textLength="200.061" font-family="Arial">CSDL</text><path d="M3477.368,222.183 C3477.368,190.933 3533.618,190.933 3533.618,190.933 C3533.618,190.933 3589.868,190.933 3589.868,222.183 L3589.868,303.433 C3589.868,334.683 3533.618,334.683 3533.618,334.683 C3533.618,334.683 3477.368,334.683 3477.368,303.433 L3477.368,222.183" style="stroke:#181818;stroke-width:1.563;" fill="#E2E2F0"/><path d="M3477.368,222.183 C3477.368,253.433 3533.618,253.433 3533.618,253.433 C3533.618,253.433 3589.868,253.433 3589.868,222.183" style="stroke:#181818;stroke-width:1.563;" fill="none"/><text x="31.25" y="2506.79" fill="#000" font-size="75" textLength="508.154" font-family="Arial">Người sử dụng</text><ellipse cx="294.702" cy="2549.246" rx="25" ry="25" fill="#E2E2F0" style="stroke:#181818;stroke-width:1.563;"/><path d="M294.702,2574.246 L294.702,2658.621 M254.077,2599.246 L335.327,2599.246 M294.702,2658.621 L254.077,2705.496 M294.702,2658.621 L335.327,2705.496" style="stroke:#181818;stroke-width:1.563;" fill="none"/><text x="1105.347" y="2506.79" fill="#000" font-size="75" textLength="620.215" font-family="Arial">Màn hình Trợ lý AI</text><path d="M1360.767,2535.184 L1360.767,2610.184 M1360.767,2572.684 L1413.892,2572.684" style="stroke:#181818;stroke-width:1.563;" fill="none"/><ellipse cx="1451.392" cy="2572.684" rx="37.5" ry="37.5" fill="#E2E2F0" style="stroke:#181818;stroke-width:1.563;"/><text x="2314.16" y="2506.79" fill="#000" font-size="75" textLength="291.87" font-family="Arial">Backend</text><text x="2198.547" y="2593.033" fill="#000" font-size="75" textLength="523.096" font-family="Arial">(Router + Core)</text><ellipse cx="2469.47" cy="2658.926" rx="37.5" ry="37.5" fill="#E2E2F0" style="stroke:#181818;stroke-width:1.563;"/><polygon points="2456.97,2621.426,2475.72,2605.801,2469.47,2621.426,2475.72,2637.051,2456.97,2621.426" fill="#181818" style="stroke:#181818;stroke-width:3.125;stroke-linejoin:miter;stroke-miterlimit:10;"/><text x="3424.213" y="2506.79" fill="#000" font-size="75" textLength="200.061" font-family="Arial">CSDL</text><path d="M3477.368,2553.934 C3477.368,2522.684 3533.618,2522.684 3533.618,2522.684 C3533.618,2522.684 3589.868,2522.684 3589.868,2553.934 L3589.868,2635.184 C3589.868,2666.434 3533.618,2666.434 3533.618,2666.434 C3533.618,2666.434 3477.368,2666.434 3477.368,2635.184 L3477.368,2553.934" style="stroke:#181818;stroke-width:1.563;" fill="#E2E2F0"/><path d="M3477.368,2553.934 C3477.368,2585.184 3533.618,2585.184 3533.618,2585.184 C3533.618,2585.184 3589.868,2585.184 3589.868,2553.934" style="stroke:#181818;stroke-width:1.563;" fill="none"/><polygon points="1387.329,538.419,1418.579,550.919,1387.329,563.419,1399.829,550.919" fill="#345B52" style="stroke:#345B52;stroke-width:3.125;stroke-linejoin:miter;stroke-miterlimit:10;"/><line x1="294.702" y1="550.919" x2="1406.079" y2="550.919" style="stroke:#345B52;stroke-width:3.125;"/><text x="316.577" y="528.775" fill="#000" font-size="75" textLength="650.427" font-family="Arial">Chọn message_out</text><polygon points="2416.345,668.411,2447.595,680.911,2416.345,693.411,2428.845,680.911" fill="#345B52" style="stroke:#345B52;stroke-width:3.125;stroke-linejoin:miter;stroke-miterlimit:10;"/><line x1="1424.829" y1="680.911" x2="2435.095" y2="680.911" style="stroke:#345B52;stroke-width:3.125;"/><text x="1446.704" y="658.768" fill="#000" font-size="75" textLength="879.858" font-family="Arial">Gửi yêu cầu message_out</text><line x1="2485.095" y1="810.904" x2="2616.345" y2="810.904" style="stroke:#345B52;stroke-width:3.125;"/><line x1="2616.345" y1="810.904" x2="2616.345" y2="851.529" style="stroke:#345B52;stroke-width:3.125;"/><line x1="2488.22" y1="851.529" x2="2616.345" y2="851.529" style="stroke:#345B52;stroke-width:3.125;"/><polygon points="2519.47,839.029,2488.22,851.529,2519.47,864.029,2506.97,851.529" fill="#345B52" style="stroke:#345B52;stroke-width:3.125;stroke-linejoin:miter;stroke-miterlimit:10;"/><text x="2506.97" y="788.76" fill="#000" font-size="75" textLength="641.968" font-family="Arial">Đọc role/content/kỳ</text><line x1="2485.095" y1="981.522" x2="2616.345" y2="981.522" style="stroke:#345B52;stroke-width:3.125;"/><line x1="2616.345" y1="981.522" x2="2616.345" y2="1022.147" style="stroke:#345B52;stroke-width:3.125;"/><line x1="2488.22" y1="1022.147" x2="2616.345" y2="1022.147" style="stroke:#345B52;stroke-width:3.125;"/><polygon points="2519.47,1009.647,2488.22,1022.147,2519.47,1034.647,2506.97,1022.147" fill="#345B52" style="stroke:#345B52;stroke-width:3.125;stroke-linejoin:miter;stroke-miterlimit:10;"/><text x="2506.97" y="959.378" fill="#000" font-size="75" textLength="1004.773" font-family="Arial">Giải mã evidence_json nếu có</text><line x1="2485.095" y1="1152.139" x2="2616.345" y2="1152.139" style="stroke:#345B52;stroke-width:3.125;"/><line x1="2616.345" y1="1152.139" x2="2616.345" y2="1192.764" style="stroke:#345B52;stroke-width:3.125;"/><line x1="2488.22" y1="1192.764" x2="2616.345" y2="1192.764" style="stroke:#345B52;stroke-width:3.125;"/><polygon points="2519.47,1180.264,2488.22,1192.764,2519.47,1205.264,2506.97,1192.764" fill="#345B52" style="stroke:#345B52;stroke-width:3.125;stroke-linejoin:miter;stroke-miterlimit:10;"/><text x="2506.97" y="1129.996" fill="#000" font-size="75" textLength="617.322" font-family="Arial">Chuẩn hóa dữ liệu</text><line x1="2485.095" y1="1322.757" x2="2616.345" y2="1322.757" style="stroke:#345B52;stroke-width:3.125;"/><line x1="2616.345" y1="1322.757" x2="2616.345" y2="1363.382" style="stroke:#345B52;stroke-width:3.125;"/><line x1="2488.22" y1="1363.382" x2="2616.345" y2="1363.382" style="stroke:#345B52;stroke-width:3.125;"/><polygon points="2519.47,1350.882,2488.22,1363.382,2519.47,1375.882,2506.97,1363.382" fill="#345B52" style="stroke:#345B52;stroke-width:3.125;stroke-linejoin:miter;stroke-miterlimit:10;"/><text x="2506.97" y="1300.613" fill="#000" font-size="75" textLength="725.317" font-family="Arial">Trả schema response</text><path d="M244.702,1400.882 L472.852,1400.882 L472.852,1462.125 L441.602,1493.375 L244.702,1493.375 L244.702,1400.882" style="stroke:#000;stroke-width:4.688;" fill="#EEE"/><rect x="244.702" y="1400.882" width="2274.768" height="960.559" fill="none" style="stroke:#000;stroke-width:4.688;"/><text x="291.577" y="1474.356" fill="#000" font-size="75" textLength="87.524" font-weight="700" font-family="Arial">alt</text><text x="519.727" y="1477.481" fill="#000" font-size="75" textLength="662.622" font-weight="700" font-family="Arial">[Xử lý thành công]</text><polygon points="1459.204,1828.97,1427.954,1841.47,1459.204,1853.97,1446.704,1841.47" fill="#345B52" style="stroke:#345B52;stroke-width:3.125;stroke-linejoin:miter;stroke-miterlimit:10;"/><line x1="1440.454" y1="1841.47" x2="2450.72" y2="1841.47" style="stroke:#345B52;stroke-width:3.125;stroke-dasharray:6.25,6.25;"/><text x="1477.954" y="1646.841" fill="#000" font-size="75" textLength="837.488" font-family="Arial">Dữ liệu đầu ra đọc được;</text><text x="1477.954" y="1733.084" fill="#000" font-size="75" textLength="949.951" font-family="Arial">JSON lỗi được xử lý an toàn</text><text x="1477.954" y="1819.327" fill="#000" font-size="75" textLength="383.569" font-family="Arial">theo router.</text><polygon points="329.077,1958.963,297.827,1971.463,329.077,1983.963,316.577,1971.463" fill="#345B52" style="stroke:#345B52;stroke-width:3.125;stroke-linejoin:miter;stroke-miterlimit:10;"/><line x1="310.327" y1="1971.463" x2="1421.704" y2="1971.463" style="stroke:#345B52;stroke-width:3.125;stroke-dasharray:6.25,6.25;"/><text x="347.827" y="1949.319" fill="#000" font-size="75" textLength="521.155" font-family="Arial">Hiển thị kết quả</text><line x1="244.702" y1="1999.588" x2="2519.47" y2="1999.588" style="stroke:#000;stroke-width:3.125;stroke-dasharray:6.25,6.25;"/><text x="260.327" y="2076.187" fill="#000" font-size="75" textLength="1307.886" font-weight="700" font-family="Arial">[Dữ liệu không hợp lệ hoặc lỗi xử lý]</text><polygon points="1459.204,2193.948,1427.954,2206.448,1459.204,2218.948,1446.704,2206.448" fill="#345B52" style="stroke:#345B52;stroke-width:3.125;stroke-linejoin:miter;stroke-miterlimit:10;"/><line x1="1440.454" y1="2206.448" x2="2450.72" y2="2206.448" style="stroke:#345B52;stroke-width:3.125;stroke-dasharray:6.25,6.25;"/><text x="1477.954" y="2184.305" fill="#000" font-size="75" textLength="954.016" font-family="Arial">Mã lỗi và thông báo phù hợp</text><polygon points="329.077,2323.941,297.827,2336.441,329.077,2348.941,316.577,2336.441" fill="#345B52" style="stroke:#345B52;stroke-width:3.125;stroke-linejoin:miter;stroke-miterlimit:10;"/><line x1="310.327" y1="2336.441" x2="1421.704" y2="2336.441" style="stroke:#345B52;stroke-width:3.125;stroke-dasharray:6.25,6.25;"/><text x="347.827" y="2314.297" fill="#000" font-size="75" textLength="1055.127" font-family="Arial">Hiển thị lỗi, giữ dữ liệu cần thiết</text><?plantuml-src XL9TQnD157tVNt59NnG_Mlg1RGMXIKYDj55C0puKocJtTdVCPYQTdMrQHH1zw8CKh0W-2PL5HL4iL11t4H-s-3_6N-AT9Ar92VgqitFFt7FkELTp7I8KgoPxqe2JvoPx0MiDaxwhmPh9Zk3tuvVGnYXYFcx8M3jHYuiEKwmDJUQsV2LZuPLaA1Lq0wvngExX9ej3NP52rrWROKbn5ewlr_a3XEdPuMA7mypKrD1D531FThdmOPE5qJ1HX5in2XVXeGF4ecItBsXYPdQkE3TDbojy4rUumA9K7gf1TNfXeNnjdgftcDBSvHqczFy1vuQUgCnMYfLvvv73N4t_XPh_wyXahpb49liCdidU2hy0B896XCffsfTCxK9XDJyK4EIVH01hocG9XFaFMAhseLN79LUK3A5W2L5uw-B2NR8V5Lo2abHuiGSS51sFQTPa4KAXL2-lz4hbecCPuSeDQhS8fS1a-s8aoKRL5WSj5c6Pz7BOpJ_6u9hqVJo2fU7uDjDunZZuZdImoxFl0id6IQiVXPvicUnuB7YPcpJXqCuJm6tksVmsxaTIW33fJvAGZtzM2cAJVh3E7JFhxXS8kSdsuh5WCZPD8783R3DG67MaeCLXeOPxDXphk0ueXu3elWgVaZxhCh2j_9S1JWvwjYXcJtRGamCRTU9UNnUtwhTh49hi5J-xXPrJ3YP0Iw9P5pf0IVxO7AyIcqt04b5EYt2JM9uIae9w1YqoGSCMpPeuIDi-8gGLMBL0mAHZIVSWa2RzvWu4dFAE6MULtEw3jlD3ExljqypVIEW4-VT-nt_gwZs-33wtSeRixwsC1N4htEdj99vVcZy0?></g></svg>