<svg xmlns="http://www.w3.org/2000/svg" xmlns:xlink="http://www.w3.org/1999/xlink" version="1.1" data-diagram-type="SEQUENCE" style="width:3784px;height:2921px;background:#FFFFFF;" width="3784.375px" height="2921.875px" viewBox="0 0 3784 2921" zoomAndPan="magnify" preserveAspectRatio="none" contentStyleType="text/css"><?plantuml 1.2026.8?><defs/><g font-family="sans-serif" lengthAdjust="spacing"><g class="title" data-source-line="1"><text x="1458.357" y="87.912" fill="#000" font-size="43.75" textLength="862.759" font-weight="700" font-family="Arial">BIỂU ĐỒ TUẦN TỰ — update_transaction</text></g><rect x="244.702" y="1665.86" width="2388.293" height="874.316" fill="none" style="stroke:#000;stroke-width:4.688;"/><g><title>Ng..i s. d.ng</title><rect x="283.765" y="420.926" width="25" height="2194.25" fill="#000" fill-opacity="0"/><line x1="294.702" y1="420.926" x2="294.702" y2="2615.176" style="stroke:#299D78;stroke-width:1.563;stroke-dasharray:15.625,15.625;"/></g><g><title>M.n h.nh Giao d.ch</title><rect x="1413.892" y="420.926" width="25" height="2194.25" fill="#000" fill-opacity="0"/><line x1="1424.829" y1="420.926" x2="1424.829" y2="2615.176" style="stroke:#299D78;stroke-width:1.563;stroke-dasharray:15.625,15.625;"/></g><g><title>Backend</title><rect x="2572.058" y="420.926" width="25" height="2194.25" fill="#000" fill-opacity="0"/><line x1="2582.996" y1="420.926" x2="2582.996" y2="2615.176" style="stroke:#299D78;stroke-width:1.563;stroke-dasharray:15.625,15.625;"/></g><g><title></title><rect x="2567.371" y="680.911" width="31.25" height="1903.015" fill="#FFF" style="stroke:#181818;stroke-width:3.125;"/></g><g><title>CSDL</title><rect x="3631.006" y="420.926" width="25" height="2194.25" fill="#000" fill-opacity="0"/><line x1="3641.943" y1="420.926" x2="3641.943" y2="2615.176" style="stroke:#299D78;stroke-width:1.563;stroke-dasharray:15.625,15.625;"/></g><text x="31.25" y="405.032" fill="#000" font-size="75" textLength="508.154" font-family="Arial">Người sử dụng</text><ellipse cx="294.702" cy="173.746" rx="25" ry="25" fill="#E2E2F0" style="stroke:#181818;stroke-width:1.563;"/><path d="M294.702,198.746 L294.702,283.121 M254.077,223.746 L335.327,223.746 M294.702,283.121 L254.077,329.996 M294.702,283.121 L335.327,329.996" style="stroke:#181818;stroke-width:1.563;" fill="none"/><text x="1090.259" y="405.032" fill="#000" font-size="75" textLength="650.391" font-family="Arial">Màn hình Giao dịch</text><path d="M1360.767,247.183 L1360.767,322.183 M1360.767,284.683 L1413.892,284.683" style="stroke:#181818;stroke-width:1.563;" fill="none"/><ellipse cx="1451.392" cy="284.683" rx="37.5" ry="37.5" fill="#E2E2F0" style="stroke:#181818;stroke-width:1.563;"/><text x="2427.686" y="318.79" fill="#000" font-size="75" textLength="291.87" font-family="Arial">Backend</text><text x="2312.073" y="405.032" fill="#000" font-size="75" textLength="523.096" font-family="Arial">(Router + Core)</text><ellipse cx="2582.996" cy="198.441" rx="37.5" ry="37.5" fill="#E2E2F0" style="stroke:#181818;stroke-width:1.563;"/><polygon points="2570.496,160.941,2589.246,145.316,2582.996,160.941,2589.246,176.566,2570.496,160.941" fill="#181818" style="stroke:#181818;stroke-width:3.125;stroke-linejoin:miter;stroke-miterlimit:10;"/><text x="3532.538" y="405.032" fill="#000" font-size="75" textLength="200.061" font-family="Arial">CSDL</text><path d="M3585.693,222.183 C3585.693,190.933 3641.943,190.933 3641.943,190.933 C3641.943,190.933 3698.193,190.933 3698.193,222.183 L3698.193,303.433 C3698.193,334.683 3641.943,334.683 3641.943,334.683 C3641.943,334.683 3585.693,334.683 3585.693,303.433 L3585.693,222.183" style="stroke:#181818;stroke-width:1.563;" fill="#E2E2F0"/><path d="M3585.693,222.183 C3585.693,253.433 3641.943,253.433 3641.943,253.433 C3641.943,253.433 3698.193,253.433 3698.193,222.183" style="stroke:#181818;stroke-width:1.563;" fill="none"/><text x="31.25" y="2685.526" fill="#000" font-size="75" textLength="508.154" font-family="Arial">Người sử dụng</text><ellipse cx="294.702" cy="2727.982" rx="25" ry="25" fill="#E2E2F0" style="stroke:#181818;stroke-width:1.563;"/><path d="M294.702,2752.982 L294.702,2837.357 M254.077,2777.982 L335.327,2777.982 M294.702,2837.357 L254.077,2884.232 M294.702,2837.357 L335.327,2884.232" style="stroke:#181818;stroke-width:1.563;" fill="none"/><text x="1090.259" y="2685.526" fill="#000" font-size="75" textLength="650.391" font-family="Arial">Màn hình Giao dịch</text><path d="M1360.767,2713.919 L1360.767,2788.919 M1360.767,2751.419 L1413.892,2751.419" style="stroke:#181818;stroke-width:1.563;" fill="none"/><ellipse cx="1451.392" cy="2751.419" rx="37.5" ry="37.5" fill="#E2E2F0" style="stroke:#181818;stroke-width:1.563;"/><text x="2427.686" y="2685.526" fill="#000" font-size="75" textLength="291.87" font-family="Arial">Backend</text><text x="2312.073" y="2771.768" fill="#000" font-size="75" textLength="523.096" font-family="Arial">(Router + Core)</text><ellipse cx="2582.996" cy="2837.662" rx="37.5" ry="37.5" fill="#E2E2F0" style="stroke:#181818;stroke-width:1.563;"/><polygon points="2570.496,2800.162,2589.246,2784.537,2582.996,2800.162,2589.246,2815.787,2570.496,2800.162" fill="#181818" style="stroke:#181818;stroke-width:3.125;stroke-linejoin:miter;stroke-miterlimit:10;"/><text x="3532.538" y="2685.526" fill="#000" font-size="75" textLength="200.061" font-family="Arial">CSDL</text><path d="M3585.693,2732.669 C3585.693,2701.419 3641.943,2701.419 3641.943,2701.419 C3641.943,2701.419 3698.193,2701.419 3698.193,2732.669 L3698.193,2813.919 C3698.193,2845.169 3641.943,2845.169 3641.943,2845.169 C3641.943,2845.169 3585.693,2845.169 3585.693,2813.919 L3585.693,2732.669" style="stroke:#181818;stroke-width:1.563;" fill="#E2E2F0"/><path d="M3585.693,2732.669 C3585.693,2763.919 3641.943,2763.919 3641.943,2763.919 C3641.943,2763.919 3698.193,2763.919 3698.193,2732.669" style="stroke:#181818;stroke-width:1.563;" fill="none"/><polygon points="1387.329,538.419,1418.579,550.919,1387.329,563.419,1399.829,550.919" fill="#345B52" style="stroke:#345B52;stroke-width:3.125;stroke-linejoin:miter;stroke-miterlimit:10;"/><line x1="294.702" y1="550.919" x2="1406.079" y2="550.919" style="stroke:#345B52;stroke-width:3.125;"/><text x="316.577" y="528.775" fill="#000" font-size="75" textLength="838.11" font-family="Arial">Chọn update_transaction</text><polygon points="2529.871,668.411,2561.121,680.911,2529.871,693.411,2542.371,680.911" fill="#345B52" style="stroke:#345B52;stroke-width:3.125;stroke-linejoin:miter;stroke-miterlimit:10;"/><line x1="1424.829" y1="680.911" x2="2548.621" y2="680.911" style="stroke:#345B52;stroke-width:3.125;"/><text x="1446.704" y="658.768" fill="#000" font-size="75" textLength="1067.542" font-family="Arial">Gửi yêu cầu update_transaction</text><polygon points="3604.443,884.647,3635.693,897.147,3604.443,909.647,3616.943,897.147" fill="#345B52" style="stroke:#345B52;stroke-width:3.125;stroke-linejoin:miter;stroke-miterlimit:10;"/><line x1="2598.621" y1="897.147" x2="3623.193" y2="897.147" style="stroke:#345B52;stroke-width:3.125;"/><text x="2620.496" y="788.76" fill="#000" font-size="75" textLength="708.618" font-family="Arial">Tìm Transaction theo</text><text x="2620.496" y="875.003" fill="#000" font-size="75" textLength="348.157" font-family="Arial">id+user_id</text><polygon points="2632.996,1014.639,2601.746,1027.139,2632.996,1039.639,2620.496,1027.139" fill="#345B52" style="stroke:#345B52;stroke-width:3.125;stroke-linejoin:miter;stroke-miterlimit:10;"/><line x1="2614.246" y1="1027.139" x2="3638.818" y2="1027.139" style="stroke:#345B52;stroke-width:3.125;stroke-dasharray:6.25,6.25;"/><text x="2651.746" y="1004.996" fill="#000" font-size="75" textLength="258.545" font-family="Arial">Kết quả</text><line x1="2598.621" y1="1157.132" x2="2729.871" y2="1157.132" style="stroke:#345B52;stroke-width:3.125;"/><line x1="2729.871" y1="1157.132" x2="2729.871" y2="1197.757" style="stroke:#345B52;stroke-width:3.125;"/><line x1="2601.746" y1="1197.757" x2="2729.871" y2="1197.757" style="stroke:#345B52;stroke-width:3.125;"/><polygon points="2632.996,1185.257,2601.746,1197.757,2632.996,1210.257,2620.496,1197.757" fill="#345B52" style="stroke:#345B52;stroke-width:3.125;stroke-linejoin:miter;stroke-miterlimit:10;"/><text x="2620.496" y="1134.988" fill="#000" font-size="75" textLength="999.573" font-family="Arial">Kiểm tra Category mới nếu có</text><line x1="2598.621" y1="1327.75" x2="2729.871" y2="1327.75" style="stroke:#345B52;stroke-width:3.125;"/><line x1="2729.871" y1="1327.75" x2="2729.871" y2="1368.375" style="stroke:#345B52;stroke-width:3.125;"/><line x1="2601.746" y1="1368.375" x2="2729.871" y2="1368.375" style="stroke:#345B52;stroke-width:3.125;"/><polygon points="2632.996,1355.875,2601.746,1368.375,2632.996,1380.875,2620.496,1368.375" fill="#345B52" style="stroke:#345B52;stroke-width:3.125;stroke-linejoin:miter;stroke-miterlimit:10;"/><text x="2620.496" y="1305.606" fill="#000" font-size="75" textLength="446.155" font-family="Arial">Đồng bộ type</text><polygon points="3604.443,1485.867,3635.693,1498.367,3604.443,1510.867,3616.943,1498.367" fill="#345B52" style="stroke:#345B52;stroke-width:3.125;stroke-linejoin:miter;stroke-miterlimit:10;"/><line x1="2598.621" y1="1498.367" x2="3623.193" y2="1498.367" style="stroke:#345B52;stroke-width:3.125;"/><text x="2620.496" y="1476.224" fill="#000" font-size="75" textLength="753.772" font-family="Arial">Gán trường và commit</text><polygon points="2632.996,1615.86,2601.746,1628.36,2632.996,1640.86,2620.496,1628.36" fill="#345B52" style="stroke:#345B52;stroke-width:3.125;stroke-linejoin:miter;stroke-miterlimit:10;"/><line x1="2614.246" y1="1628.36" x2="3638.818" y2="1628.36" style="stroke:#345B52;stroke-width:3.125;stroke-dasharray:6.25,6.25;"/><text x="2651.746" y="1606.216" fill="#000" font-size="75" textLength="258.545" font-family="Arial">Kết quả</text><path d="M244.702,1665.86 L472.852,1665.86 L472.852,1727.103 L441.602,1758.353 L244.702,1758.353 L244.702,1665.86" style="stroke:#000;stroke-width:4.688;" fill="#EEE"/><rect x="244.702" y="1665.86" width="2388.293" height="874.316" fill="none" style="stroke:#000;stroke-width:4.688;"/><text x="291.577" y="1739.334" fill="#000" font-size="75" textLength="87.524" font-weight="700" font-family="Arial">alt</text><text x="519.727" y="1742.459" fill="#000" font-size="75" textLength="662.622" font-weight="700" font-family="Arial">[Xử lý thành công]</text><polygon points="1459.204,2007.706,1427.954,2020.206,1459.204,2032.706,1446.704,2020.206" fill="#345B52" style="stroke:#345B52;stroke-width:3.125;stroke-linejoin:miter;stroke-miterlimit:10;"/><line x1="1440.454" y1="2020.206" x2="2564.246" y2="2020.206" style="stroke:#345B52;stroke-width:3.125;stroke-dasharray:6.25,6.25;"/><text x="1477.954" y="1911.819" fill="#000" font-size="75" textLength="903.406" font-family="Arial">Dữ liệu mới được lưu; type</text><text x="1477.954" y="1998.062" fill="#000" font-size="75" textLength="803.833" font-family="Arial">nhất quán với Category.</text><polygon points="329.077,2137.698,297.827,2150.198,329.077,2162.698,316.577,2150.198" fill="#345B52" style="stroke:#345B52;stroke-width:3.125;stroke-linejoin:miter;stroke-miterlimit:10;"/><line x1="310.327" y1="2150.198" x2="1421.704" y2="2150.198" style="stroke:#345B52;stroke-width:3.125;stroke-dasharray:6.25,6.25;"/><text x="347.827" y="2128.055" fill="#000" font-size="75" textLength="521.155" font-family="Arial">Hiển thị kết quả</text><line x1="244.702" y1="2178.323" x2="2632.996" y2="2178.323" style="stroke:#000;stroke-width:3.125;stroke-dasharray:6.25,6.25;"/><text x="260.327" y="2254.922" fill="#000" font-size="75" textLength="1307.886" font-weight="700" font-family="Arial">[Dữ liệu không hợp lệ hoặc lỗi xử lý]</text><polygon points="1459.204,2372.684,1427.954,2385.184,1459.204,2397.684,1446.704,2385.184" fill="#345B52" style="stroke:#345B52;stroke-width:3.125;stroke-linejoin:miter;stroke-miterlimit:10;"/><line x1="1440.454" y1="2385.184" x2="2564.246" y2="2385.184" style="stroke:#345B52;stroke-width:3.125;stroke-dasharray:6.25,6.25;"/><text x="1477.954" y="2363.04" fill="#000" font-size="75" textLength="954.016" font-family="Arial">Mã lỗi và thông báo phù hợp</text><polygon points="329.077,2502.676,297.827,2515.176,329.077,2527.676,316.577,2515.176" fill="#345B52" style="stroke:#345B52;stroke-width:3.125;stroke-linejoin:miter;stroke-miterlimit:10;"/><line x1="310.327" y1="2515.176" x2="1421.704" y2="2515.176" style="stroke:#345B52;stroke-width:3.125;stroke-dasharray:6.25,6.25;"/><text x="347.827" y="2493.033" fill="#000" font-size="75" textLength="1055.127" font-family="Arial">Hiển thị lỗi, giữ dữ liệu cần thiết</text><?plantuml-src XPFVQzH04CVVyrSCrnUbLafxnVO4mTnnzR0znDw13uMobsoJvPBTTBDfFKKGVV1117-1Y0WjHnMaOa51l20-fFJ_MFyIPtEnZUMeJqbslZFVpyvC55C11RkbqqTTE7gkqvVGwUhHXpPqT7e8ln--XYHoYQ8RIX8U4qSnmQsuptX490cXHvo-9qN2tRe8X8GTdobQYhjqaoI1QWgksYIaS5qo4aoEhx5x5EQgvM34O7vsjdGI-yGLEunxi4c2k6mKqws4SeV2VGlGHOgTCT3KV7N1NfZ3mnMsILSOfxQGBfL5T6vfgN5b4QEtY5JCOH7Xwl-2CvUUQbQRTdFHUc1XV_2xqlQE3tNwda6iqy_WwdIVUnKWCNHZAgsUoIHo09NLR9U3dnrm7vOP4KRvrF77ofRbO5Ea2A1Y_2Xtr_c5so9HLC8qr8Ma5tDX4RHmIAH7OWgL-bfZ9GyrRCiOmimrB5U3kg_JPtpIFBijeoagrM0PgHaCiay9E7hqCPcKOXxRU7ZYNpnDeOPTWqvs44BdD06KJyKwP-vqWaWRpBKQDioKNM_gqIy5MuaU3Sl5JkDCfuz3G0Yeex4di8EXJjynu9Y9gDdNYNbcgr_XnlHq-XRK8A9dKPUpFSIJ-SXGjvtjWYF2aAbp4KcWu8uPRv3znClX97r4-COzt9KJWwBp3Pr-WG3vdoG5yj4BOpTq83W-JAxcMEkS-tgqR-eReErSz_Ucbx6gcP8fYFshmGtJ3TDLN1debxWe_XV_6FPzGmKe74OGu17uGe--E-Rz3OExnHqcOAzcmq9aUgB6TNhPde38ptwCAvxBbITV0eyP7BV4PDRAY9W1j_BrfMStwWy0?></g></svg>